<svg width="100" height="100" viewBox="0 0 100 100" fill="none" xmlns="http://www.w3.org/2000/svg">
<g clip-path="url(#clip0_9_17)">
<path d="M32.569 23.051C32.701 23.183 32.9744 23.4564 33.3892 23.8712C33.8041 24.286 34.2472 24.748 34.7186 25.2571C35.2088 25.7474 35.6614 26.1999 36.0762 26.6148C36.4911 27.0296 36.7833 27.3219 36.953 27.4916C39.5363 30.1503 41.2334 32.677 42.0442 35.0718C42.8739 37.4854 42.9022 39.8141 42.1291 42.058C41.3748 44.3207 39.8852 46.5646 37.6602 48.7897C35.3031 51.1467 32.9272 52.7117 30.5325 53.4848C28.1378 54.2579 25.7053 54.2014 23.2352 53.3151C20.765 52.4289 18.2571 50.713 15.7116 48.1674L11.5538 44.0096C11.2898 43.7456 11.3086 43.4628 11.6103 43.1611L31.7487 23.0227C31.8807 22.8907 32.0033 22.8247 32.1164 22.8247C32.2673 22.8247 32.4181 22.9001 32.569 23.051ZM33.0781 27.6896C32.8895 27.501 32.6633 27.5387 32.3993 27.8027L16.2207 43.9813C16.0133 44.1887 16.0227 44.4056 16.249 44.6319L17.3238 45.7067C19.4168 47.7997 21.3873 49.2233 23.2352 49.9776C25.1019 50.713 26.9593 50.7601 28.8072 50.119C30.6739 49.4968 32.635 48.158 34.6903 46.1026C36.8399 43.953 38.1976 41.9543 38.7632 40.1064C39.3666 38.2585 39.2724 36.4294 38.4804 34.6192C37.7073 32.8279 36.3308 30.9423 34.3509 28.9624L33.0781 27.6896ZM50.7467 42.0207C51.0107 41.7567 51.2558 41.7378 51.4821 41.9641L64.1817 54.6637C64.3703 54.8523 64.3609 55.0503 64.1535 55.2577L62.711 56.7002C62.4847 56.9265 62.249 56.917 62.0038 56.6719L52.1326 46.8007C51.8875 46.5556 51.6518 46.5461 51.4255 46.7724L44.807 53.3909C44.5996 53.5983 44.5996 53.8058 44.807 54.0132L52.1326 61.3388C52.3401 61.5462 52.3401 61.7536 52.1326 61.9611L50.6336 63.4601C50.5581 63.5356 50.4733 63.5827 50.379 63.6016C50.3036 63.6016 50.1999 63.5356 50.0679 63.4036L42.7423 56.0779C42.5348 55.8705 42.3274 55.8705 42.12 56.0779L35.2469 62.951C35.0584 63.1396 35.0584 63.3281 35.2469 63.5167L45.6273 73.897C45.8347 74.1044 45.8441 74.3024 45.6555 74.491L44.1565 75.9901C44.0622 76.0843 43.9585 76.1315 43.8453 76.1315C43.7511 76.1503 43.6474 76.1032 43.5342 75.9901L30.5517 63.0076C30.2878 62.7436 30.2878 62.4796 30.5517 62.2156L50.7467 42.0207ZM74.6701 64.5864C75.6129 65.5292 76.3577 66.5946 76.9046 67.7825C77.4891 68.9705 77.8662 70.1773 78.0359 71.4029C78.2057 72.6286 78.1679 73.8165 77.9228 74.9667C77.6777 76.117 77.2157 77.1446 76.5369 78.0497C76.4049 78.2571 76.2918 78.3703 76.1975 78.3891C76.122 78.4269 76.0278 78.3891 75.9146 78.276L73.6236 76.3244C73.5105 76.249 73.4633 76.1641 73.4822 76.0698C73.501 75.9756 73.5482 75.8718 73.6236 75.7587C74.5664 74.2879 74.9624 72.7417 74.8115 71.1201C74.6984 69.4985 73.9913 68.0371 72.6902 66.736C70.7292 64.775 68.4947 63.9924 65.9868 64.3884C63.479 64.7844 60.7637 66.4438 57.841 69.3665C55.0126 72.1949 53.3909 74.8536 52.9761 77.3426C52.5612 79.8316 53.4003 82.1227 55.4934 84.2157C56.8322 85.5545 58.2652 86.3465 59.7926 86.5916C61.3388 86.8556 63.0924 86.5539 65.0535 85.6865C65.2232 85.6299 65.374 85.7053 65.506 85.9128L66.7788 87.9775C66.8165 88.0529 66.8259 88.1378 66.8071 88.2321C66.7882 88.3264 66.694 88.4206 66.5242 88.5149C65.8266 88.9109 65.0535 89.2126 64.2049 89.42C63.3753 89.6463 62.4985 89.7688 61.5745 89.7877C60.6694 89.7877 59.7266 89.6746 58.7461 89.4483C57.7844 89.2032 56.8322 88.8166 55.8894 88.2886C54.9654 87.7795 54.0792 87.1007 53.2306 86.2522C51.3639 84.3854 50.1854 82.3395 49.6951 80.1145C49.2237 77.9083 49.4405 75.6361 50.3456 73.298C51.2696 70.9787 52.8441 68.7065 55.0691 66.4815C57.2941 64.2564 59.5569 62.6914 61.8573 61.7863C64.1955 60.8812 66.4488 60.6643 68.6173 61.1357C70.8235 61.6071 72.8411 62.7574 74.6701 64.5864ZM85.3059 97.793C85.0608 98.0382 84.7873 98.0099 84.4856 97.7082L73.0022 86.2813C72.8702 86.1493 72.8042 86.0268 72.8042 85.9136C72.8042 85.8005 72.8608 85.6874 72.9739 85.5742L74.1902 84.358C74.4164 84.1317 74.6144 84.1034 74.7841 84.2732L86.5221 96.0111C86.7107 96.1997 86.7107 96.3883 86.5221 96.5768L85.3059 97.793ZM73.0588 96.6899C72.7948 96.426 72.8137 96.1431 73.1154 95.8414L84.5422 84.358C84.6931 84.2072 84.8156 84.1412 84.9099 84.16C85.023 84.16 85.1362 84.2166 85.2493 84.3297L86.4655 85.5459C86.6918 85.7722 86.7201 85.9702 86.5504 86.1399L74.8407 97.9062C74.6521 98.0947 74.4636 98.0947 74.275 97.9062L73.0588 96.6899Z" fill="white"/>
</g>
<defs>
<clipPath id="clip0_9_17">
<rect width="100" height="100" fill="white" transform="matrix(0 -1 1 0 0 100)"/>
</clipPath>
</defs>
</svg>
