<svg width="100" height="100" viewBox="0 0 100 100" fill="none" xmlns="http://www.w3.org/2000/svg">
<g clip-path="url(#clip0_9_27)">
<path d="M26.051 65.8696C26.183 65.7376 26.4564 65.4642 26.8712 65.0494C27.286 64.6345 27.748 64.1914 28.2571 63.72C28.7474 63.2298 29.1999 62.7772 29.6148 62.3624C30.0296 61.9475 30.3219 61.6553 30.4916 61.4856C33.1503 58.9023 35.677 57.2052 38.0718 56.3944C40.4854 55.5647 42.8141 55.5364 45.058 56.3095C47.3207 57.0638 49.5646 58.5534 51.7897 60.7784C54.1467 63.1355 55.7117 65.5113 56.4848 67.9061C57.2579 70.3008 57.2014 72.7333 56.3151 75.2034C55.4289 77.6736 53.713 80.1815 51.1674 82.727L47.0096 86.8848C46.7456 87.1488 46.4628 87.13 46.1611 86.8283L26.0227 66.6899C25.8907 66.5579 25.8247 66.4353 25.8247 66.3222C25.8247 66.1713 25.9001 66.0205 26.051 65.8696ZM30.6896 65.3605C30.501 65.5491 30.5387 65.7753 30.8027 66.0393L46.9813 82.2179C47.1887 82.4253 47.4056 82.4159 47.6319 82.1896L48.7067 81.1148C50.7997 79.0218 52.2233 77.0513 52.9776 75.2034C53.713 73.3367 53.7601 71.4793 53.119 69.6314C52.4968 67.7647 51.158 65.8036 49.1026 63.7483C46.953 61.5987 44.9543 60.241 43.1064 59.6754C41.2585 59.072 39.4294 59.1662 37.6192 59.9582C35.8279 60.7313 33.9423 62.1078 31.9624 64.0877L30.6896 65.3605ZM45.0207 47.6919C44.7567 47.4279 44.7378 47.1828 44.9641 46.9565L57.6637 34.2569C57.8523 34.0683 58.0503 34.0777 58.2577 34.2851L59.7002 35.7276C59.9265 35.9539 59.917 36.1896 59.6719 36.4347L49.8007 46.306C49.5556 46.5511 49.5461 46.7868 49.7724 47.0131L56.3909 53.6316C56.5983 53.839 56.8058 53.839 57.0132 53.6316L64.3388 46.306C64.5462 46.0985 64.7536 46.0985 64.9611 46.306L66.4601 47.805C66.5356 47.8805 66.5827 47.9653 66.6016 48.0596C66.6016 48.135 66.5356 48.2387 66.4036 48.3707L59.0779 55.6963C58.8705 55.9038 58.8705 56.1112 59.0779 56.3186L65.951 63.1917C66.1396 63.3802 66.3281 63.3802 66.5167 63.1917L76.897 52.8113C77.1044 52.6039 77.3024 52.5945 77.491 52.7831L78.9901 54.2821C79.0843 54.3764 79.1315 54.4801 79.1315 54.5933C79.1503 54.6875 79.1032 54.7912 78.9901 54.9044L66.0076 67.8869C65.7436 68.1508 65.4796 68.1508 65.2156 67.8869L45.0207 47.6919ZM67.5864 23.7685C68.5292 22.8257 69.5946 22.0809 70.7825 21.534C71.9705 20.9495 73.1773 20.5724 74.4029 20.4027C75.6286 20.2329 76.8165 20.2707 77.9667 20.5158C79.117 20.7609 80.1446 21.2229 81.0497 21.9017C81.2571 22.0337 81.3703 22.1468 81.3891 22.2411C81.4269 22.3166 81.3891 22.4108 81.276 22.524L79.3244 24.815C79.249 24.9281 79.1641 24.9753 79.0698 24.9564C78.9756 24.9376 78.8718 24.8904 78.7587 24.815C77.2879 23.8722 75.7417 23.4762 74.1201 23.6271C72.4985 23.7402 71.0371 24.4473 69.736 25.7484C67.775 27.7094 66.9924 29.9439 67.3884 32.4517C67.7844 34.9596 69.4438 37.6749 72.3665 40.5976C75.1949 43.426 77.8536 45.0477 80.3426 45.4625C82.8316 45.8774 85.1227 45.0383 87.2157 42.9452C88.5545 41.6064 89.3465 40.1734 89.5916 38.646C89.8556 37.0998 89.5539 35.3462 88.6865 33.3851C88.6299 33.2154 88.7053 33.0646 88.9128 32.9326L90.9775 31.6598C91.0529 31.6221 91.1378 31.6127 91.2321 31.6315C91.3264 31.6504 91.4206 31.7446 91.5149 31.9144C91.9109 32.612 92.2126 33.3851 92.42 34.2337C92.6463 35.0633 92.7688 35.9401 92.7877 36.8641C92.7877 37.7692 92.6746 38.712 92.4483 39.6925C92.2032 40.6542 91.8166 41.6064 91.2886 42.5492C90.7795 43.4732 90.1007 44.3594 89.2522 45.208C87.3854 47.0747 85.3395 48.2532 83.1145 48.7435C80.9083 49.2149 78.6361 48.998 76.298 48.093C73.9787 47.169 71.7065 45.5945 69.4815 43.3695C67.2564 41.1445 65.6914 38.8817 64.7863 36.5813C63.8812 34.2431 63.6643 31.9898 64.1357 29.8213C64.6071 27.6151 65.7574 25.5975 67.5864 23.7685ZM98.8414 21.1937C99.1054 21.4577 99.0771 21.75 98.7566 22.0705L92.336 28.4911C92.204 28.6231 92.0909 28.6985 91.9966 28.7173C91.8835 28.7173 91.7609 28.6513 91.6289 28.5194L90.3844 27.2748C90.177 27.0674 90.1582 26.8789 90.3279 26.7092L97.0312 19.9492C97.2198 19.7607 97.4084 19.7607 97.5969 19.9492L98.8414 21.1937Z" fill="white"/>
</g>
<defs>
<clipPath id="clip0_9_27">
<rect width="100" height="100" fill="white" transform="matrix(-1 0 0 -1 100 100)"/>
</clipPath>
</defs>
</svg>
