<svg width="24" height="24" viewBox="0 0 24 24" fill="none" xmlns="http://www.w3.org/2000/svg">
<path d="M3.86827 19.4246L4.57538 20.1317L6.37855 18.3286L5.67145 17.6214M20 12.5H23V11.5H20M17.6214 18.3286L19.4164 20.1236L20.1236 19.4164L18.3286 17.6214M20.0786 4.62855L19.3714 3.92145L17.5714 5.72145L18.2786 6.42855M12.5 1L11.5 1V4H12.5M6.42855 5.72145L4.62855 3.92145L3.86827 4.57538L5.72145 6.42855L6.42855 5.72145ZM1 12.5H4V11.5H1M12.5 20H11.5V23H12.5" fill="white"/>
<path d="M3.86827 19.4246L4.57538 20.1317L6.37855 18.3286L5.67145 17.6214M20 12.5H23V11.5H20M17.6214 18.3286L19.4164 20.1236L20.1236 19.4164L18.3286 17.6214M20.0786 4.62855L19.3714 3.92145L17.5714 5.72145L18.2786 6.42855M12.5 1L11.5 1V4H12.5M6.42855 5.72145L4.62855 3.92145L3.86827 4.57538L5.72145 6.42855L6.42855 5.72145ZM1 12.5H4V11.5H1M12.5 20H11.5V23H12.5" fill="white"/>
<circle cx="12" cy="12" r="6.5" stroke="white"/>
<path d="M10.0986 14H9.66863V11.505C9.66863 11.4083 9.66863 11.3267 9.66863 11.26C9.67197 11.1933 9.6753 11.1317 9.67863 11.075C9.68197 11.015 9.6853 10.9533 9.68863 10.89C9.6353 10.9433 9.58697 10.9883 9.54363 11.025C9.5003 11.0617 9.4453 11.1083 9.37863 11.165L8.99863 11.475L8.76863 11.18L9.73363 10.43H10.0986V14ZM14.4538 13.26C14.4538 13.4333 14.4105 13.5783 14.3238 13.695C14.2371 13.8117 14.1138 13.9 13.9538 13.96C13.7938 14.02 13.6038 14.05 13.3838 14.05C13.1971 14.05 13.0355 14.035 12.8988 14.005C12.7655 13.975 12.6471 13.9333 12.5438 13.88V13.48C12.6505 13.5333 12.7788 13.5833 12.9288 13.63C13.0821 13.6733 13.2371 13.695 13.3938 13.695C13.6171 13.695 13.7788 13.66 13.8788 13.59C13.9788 13.5167 14.0288 13.42 14.0288 13.3C14.0288 13.2333 14.0105 13.1733 13.9738 13.12C13.9371 13.0667 13.8705 13.0133 13.7738 12.96C13.6805 12.9067 13.5455 12.8467 13.3688 12.78C13.1955 12.7133 13.0471 12.6467 12.9238 12.58C12.8005 12.5133 12.7055 12.4333 12.6388 12.34C12.5721 12.2467 12.5388 12.1267 12.5388 11.98C12.5388 11.7533 12.6305 11.5783 12.8138 11.455C13.0005 11.3317 13.2438 11.27 13.5438 11.27C13.7071 11.27 13.8588 11.2867 13.9988 11.32C14.1421 11.35 14.2755 11.3933 14.3988 11.45L14.2488 11.8C14.1755 11.7667 14.0971 11.7383 14.0138 11.715C13.9338 11.6883 13.8521 11.6683 13.7688 11.655C13.6855 11.6383 13.6005 11.63 13.5138 11.63C13.3338 11.63 13.1955 11.66 13.0988 11.72C13.0055 11.7767 12.9588 11.855 12.9588 11.955C12.9588 12.0283 12.9805 12.0917 13.0238 12.145C13.0671 12.195 13.1388 12.245 13.2388 12.295C13.3421 12.3417 13.4788 12.3983 13.6488 12.465C13.8188 12.5283 13.9638 12.5933 14.0838 12.66C14.2038 12.7267 14.2955 12.8083 14.3588 12.905C14.4221 12.9983 14.4538 13.1167 14.4538 13.26Z" fill="white"/>
</svg>
