<svg width="24" height="24" viewBox="0 0 24 24" fill="none" xmlns="http://www.w3.org/2000/svg">
<path d="M3.86827 19.4246L4.57538 20.1317L6.37855 18.3286L5.67145 17.6214M20 12.5H23V11.5H20M17.6214 18.3286L19.4164 20.1236L20.1236 19.4164L18.3286 17.6214M20.0786 4.62855L19.3714 3.92145L17.5714 5.72145L18.2786 6.42855M12.5 1L11.5 1V4H12.5M6.42855 5.72145L4.62855 3.92145L3.86827 4.57538L5.72145 6.42855L6.42855 5.72145ZM1 12.5H4V11.5H1M12.5 20H11.5V23H12.5" fill="white"/>
<path d="M3.86827 19.4246L4.57538 20.1317L6.37855 18.3286L5.67145 17.6214M20 12.5H23V11.5H20M17.6214 18.3286L19.4164 20.1236L20.1236 19.4164L18.3286 17.6214M20.0786 4.62855L19.3714 3.92145L17.5714 5.72145L18.2786 6.42855M12.5 1L11.5 1V4H12.5M6.42855 5.72145L4.62855 3.92145L3.86827 4.57538L5.72145 6.42855L6.42855 5.72145ZM1 12.5H4V11.5H1M12.5 20H11.5V23H12.5" fill="white"/>
<circle cx="12" cy="12" r="6.5" stroke="white"/>
<path d="M10.0384 12.21C10.0384 12.5 10.0168 12.7583 9.97344 12.985C9.9301 13.2117 9.8601 13.405 9.76344 13.565C9.6701 13.7217 9.54677 13.8417 9.39344 13.925C9.24344 14.0083 9.06177 14.05 8.84844 14.05C8.58177 14.05 8.3601 13.9767 8.18344 13.83C8.0101 13.6833 7.8801 13.4733 7.79344 13.2C7.7101 12.9233 7.66844 12.5933 7.66844 12.21C7.66844 11.8233 7.70677 11.4933 7.78344 11.22C7.86344 10.9467 7.9901 10.7383 8.16344 10.595C8.33677 10.4483 8.5651 10.375 8.84844 10.375C9.1151 10.375 9.33677 10.4483 9.51344 10.595C9.6901 10.7383 9.82177 10.9467 9.90844 11.22C9.9951 11.4933 10.0384 11.8233 10.0384 12.21ZM8.10844 12.21C8.10844 12.5367 8.13177 12.8083 8.17844 13.025C8.22844 13.2417 8.30677 13.405 8.41344 13.515C8.52344 13.6217 8.66844 13.675 8.84844 13.675C9.02844 13.675 9.17177 13.6217 9.27844 13.515C9.38844 13.4083 9.46844 13.2467 9.51844 13.03C9.56844 12.81 9.59344 12.5367 9.59344 12.21C9.59344 11.8833 9.56844 11.6133 9.51844 11.4C9.46844 11.1833 9.38844 11.0217 9.27844 10.915C9.17177 10.805 9.02844 10.75 8.84844 10.75C8.66844 10.75 8.52344 10.805 8.41344 10.915C8.30677 11.0217 8.22844 11.1833 8.17844 11.4C8.13177 11.6133 8.10844 11.8833 8.10844 12.21ZM10.5448 13.73C10.5448 13.6067 10.5748 13.52 10.6348 13.47C10.6948 13.42 10.7664 13.395 10.8498 13.395C10.9364 13.395 11.0098 13.42 11.0698 13.47C11.1331 13.52 11.1648 13.6067 11.1648 13.73C11.1648 13.85 11.1331 13.9367 11.0698 13.99C11.0098 14.0433 10.9364 14.07 10.8498 14.07C10.7664 14.07 10.6948 14.0433 10.6348 13.99C10.5748 13.9367 10.5448 13.85 10.5448 13.73ZM12.7977 11.81C13.041 11.81 13.2527 11.8517 13.4327 11.935C13.6127 12.0183 13.751 12.1383 13.8477 12.295C13.9477 12.4483 13.9977 12.6367 13.9977 12.86C13.9977 13.1067 13.9443 13.32 13.8377 13.5C13.731 13.6767 13.5777 13.8133 13.3777 13.91C13.181 14.0033 12.9427 14.05 12.6627 14.05C12.4793 14.05 12.306 14.0333 12.1427 14C11.9827 13.9667 11.8477 13.9183 11.7377 13.855V13.44C11.8577 13.5133 12.0027 13.5717 12.1727 13.615C12.346 13.655 12.511 13.675 12.6677 13.675C12.8443 13.675 12.9977 13.6483 13.1277 13.595C13.261 13.5383 13.3643 13.4533 13.4377 13.34C13.511 13.2233 13.5477 13.0783 13.5477 12.905C13.5477 12.6717 13.476 12.4933 13.3327 12.37C13.1893 12.2433 12.9627 12.18 12.6527 12.18C12.5593 12.18 12.4527 12.1883 12.3327 12.205C12.2127 12.2217 12.116 12.2383 12.0427 12.255L11.8227 12.115L11.9577 10.43H13.7477V10.83H12.3327L12.2477 11.865C12.3043 11.855 12.381 11.8433 12.4777 11.83C12.5743 11.8167 12.681 11.81 12.7977 11.81ZM16.354 13.26C16.354 13.4333 16.3107 13.5783 16.224 13.695C16.1373 13.8117 16.014 13.9 15.854 13.96C15.694 14.02 15.504 14.05 15.284 14.05C15.0973 14.05 14.9357 14.035 14.799 14.005C14.6657 13.975 14.5473 13.9333 14.444 13.88V13.48C14.5507 13.5333 14.679 13.5833 14.829 13.63C14.9823 13.6733 15.1373 13.695 15.294 13.695C15.5173 13.695 15.679 13.66 15.779 13.59C15.879 13.5167 15.929 13.42 15.929 13.3C15.929 13.2333 15.9107 13.1733 15.874 13.12C15.8373 13.0667 15.7707 13.0133 15.674 12.96C15.5807 12.9067 15.4457 12.8467 15.269 12.78C15.0957 12.7133 14.9473 12.6467 14.824 12.58C14.7007 12.5133 14.6057 12.4333 14.539 12.34C14.4723 12.2467 14.439 12.1267 14.439 11.98C14.439 11.7533 14.5307 11.5783 14.714 11.455C14.9007 11.3317 15.144 11.27 15.444 11.27C15.6073 11.27 15.759 11.2867 15.899 11.32C16.0423 11.35 16.1757 11.3933 16.299 11.45L16.149 11.8C16.0757 11.7667 15.9973 11.7383 15.914 11.715C15.834 11.6883 15.7523 11.6683 15.669 11.655C15.5857 11.6383 15.5007 11.63 15.414 11.63C15.234 11.63 15.0957 11.66 14.999 11.72C14.9057 11.7767 14.859 11.855 14.859 11.955C14.859 12.0283 14.8807 12.0917 14.924 12.145C14.9673 12.195 15.039 12.245 15.139 12.295C15.2423 12.3417 15.379 12.3983 15.549 12.465C15.719 12.5283 15.864 12.5933 15.984 12.66C16.104 12.7267 16.1957 12.8083 16.259 12.905C16.3223 12.9983 16.354 13.1167 16.354 13.26Z" fill="white"/>
</svg>
