<svg width="83" height="83" viewBox="0 0 83 83" fill="none" xmlns="http://www.w3.org/2000/svg">
<path d="M41.5934 69.6285C34.8806 69.6272 28.3843 67.2664 23.2519 62.9631C18.1195 58.6598 14.6812 52.691 13.5446 46.1108C12.4079 39.5307 13.6458 32.7627 17.0398 27.0024C20.4337 21.242 25.7653 16.86 32.0927 14.6303C38.42 12.4006 45.3361 12.4667 51.6192 14.817C57.9024 17.1672 63.1482 21.6504 66.4302 27.4745C69.7122 33.2987 70.8192 40.0891 69.5555 46.6463C68.2919 53.2035 64.7389 59.1055 59.5243 63.3099C59.2944 63.4951 58.9999 63.5818 58.7056 63.5511C58.4114 63.5203 58.1415 63.3745 57.9553 63.1458C57.7691 62.9171 57.6819 62.6242 57.7128 62.3315C57.7437 62.0389 57.8903 61.7704 58.1202 61.5852C63.2207 57.4619 66.5716 51.5785 67.5052 45.1075C68.4388 38.6365 66.8865 32.0533 63.1576 26.6698C59.4288 21.2864 53.7973 17.4982 47.3855 16.0602C40.9738 14.6223 34.2527 15.6401 28.5618 18.911C22.8709 22.1818 18.6283 27.4654 16.6794 33.7087C14.7305 39.952 15.2186 46.6964 18.0463 52.5978C20.874 58.4991 25.8337 63.124 31.9368 65.5506C38.04 67.9771 44.8384 68.0272 50.977 65.6908C51.1181 65.6186 51.2731 65.5771 51.4315 65.5689C51.59 65.5607 51.7484 65.5862 51.8963 65.6435C52.0442 65.7008 52.1781 65.7887 52.2892 65.9014C52.4003 66.0141 52.4861 66.149 52.5409 66.2971C52.5956 66.4453 52.6181 66.6033 52.6068 66.7607C52.5956 66.9182 52.5508 67.0714 52.4755 67.2103C52.4002 67.3493 52.296 67.4707 52.17 67.5666C52.0439 67.6625 51.8988 67.7306 51.7443 67.7665C48.5035 68.9989 45.063 69.63 41.5934 69.6285Z" fill="white"/>
<path d="M43.9258 60.7839C43.8382 60.7895 43.7503 60.7777 43.6672 60.7495C43.5841 60.7212 43.5074 60.6769 43.4415 60.6192C43.3756 60.5614 43.3217 60.4913 43.2831 60.4129C43.2444 60.3344 43.2217 60.2492 43.2161 60.162C43.2106 60.0748 43.2224 59.9874 43.2508 59.9047C43.2792 59.8221 43.3237 59.7458 43.3818 59.6802C43.4399 59.6147 43.5103 59.5612 43.5892 59.5227C43.6681 59.4843 43.7538 59.4616 43.8414 59.4561C47.9173 58.972 51.7107 57.1378 54.6112 54.2489C57.5116 51.3599 59.3503 47.5843 59.8312 43.5297C59.8522 43.3578 59.937 43.1999 60.069 43.0869C60.201 42.974 60.3707 42.9142 60.5448 42.9192C60.6342 42.9295 60.7206 42.9576 60.7989 43.0019C60.8771 43.0462 60.9455 43.1058 61 43.1771C61.0545 43.2484 61.0939 43.3299 61.1159 43.4167C61.1378 43.5036 61.1419 43.5939 61.1279 43.6824C60.6143 48.029 58.6464 52.0778 55.5405 55.178C52.4346 58.2782 48.3709 60.25 44.0026 60.7763L43.9258 60.7839ZM39.2148 60.7839H39.1381C34.7952 60.2482 30.7563 58.2863 27.6612 55.2093C24.5661 52.1323 22.5918 48.116 22.0512 43.7968C22.0382 43.7085 22.0431 43.6185 22.0655 43.5321C22.0879 43.4457 22.1274 43.3646 22.1817 43.2936C22.236 43.2225 22.304 43.163 22.3817 43.1183C22.4594 43.0737 22.5453 43.0449 22.6343 43.0337C22.7233 43.0186 22.8146 43.0219 22.9023 43.0433C22.9901 43.0647 23.0725 43.1038 23.1444 43.1582C23.2163 43.2125 23.2763 43.281 23.3205 43.3594C23.3647 43.4377 23.3923 43.5243 23.4015 43.6137C23.9025 47.636 25.738 51.3773 28.6175 54.2453C31.4969 57.1134 35.2558 58.9444 39.2992 59.4485C39.3891 59.4577 39.4761 59.4851 39.5549 59.5291C39.6337 59.5731 39.7026 59.6327 39.7572 59.7042C39.8119 59.7758 39.8512 59.8577 39.8727 59.945C39.8943 60.0323 39.8975 60.123 39.8824 60.2116C39.8568 60.3693 39.7756 60.5128 39.6532 60.6163C39.5309 60.7198 39.3755 60.7765 39.2148 60.7763V60.7839ZM22.6419 40.3246H22.5806C22.4047 40.3091 22.2422 40.2249 22.1286 40.0905C22.0149 39.956 21.9595 39.7823 21.9744 39.6073C22.3809 35.1653 24.2935 30.9926 27.3983 27.7742C30.5032 24.5557 34.6159 22.4827 39.0614 21.8952C39.1497 21.8812 39.24 21.885 39.3269 21.9064C39.4137 21.9278 39.4953 21.9663 39.5669 22.0197C39.6385 22.0731 39.6985 22.1403 39.7435 22.2172C39.7885 22.2941 39.8174 22.3793 39.8286 22.4676C39.8438 22.5561 39.8406 22.6469 39.819 22.7342C39.7975 22.8214 39.7582 22.9034 39.7035 22.9749C39.6489 23.0465 39.58 23.1061 39.5012 23.1501C39.4224 23.1941 39.3354 23.2215 39.2455 23.2307C35.1031 23.7725 31.2691 25.6994 28.3732 28.6948C25.4773 31.6902 23.6916 35.576 23.3095 39.7141C23.2942 39.8801 23.2175 40.0346 23.0941 40.1474C22.9707 40.2603 22.8096 40.3234 22.6419 40.3246ZM60.468 39.4776C60.3056 39.4757 60.1492 39.4162 60.0268 39.3099C59.9045 39.2036 59.8242 39.0574 59.8005 38.8976C59.2705 34.8373 57.3772 31.074 54.4276 28.2179C51.478 25.3617 47.645 23.5802 43.5499 23.162C43.4595 23.1526 43.372 23.1252 43.2925 23.0814C43.213 23.0376 43.1433 22.9783 43.0874 22.9071C43.0315 22.8358 42.9907 22.7541 42.9673 22.6668C42.9439 22.5794 42.9385 22.4883 42.9514 22.3989C42.9798 22.2215 43.0748 22.0615 43.2172 21.951C43.3596 21.8405 43.5388 21.7879 43.7187 21.8036C48.1121 22.2636 52.2213 24.1839 55.3818 27.2539C58.5422 30.324 60.5694 34.3644 61.1356 38.7221C61.1485 38.8104 61.1436 38.9004 61.1212 38.9868C61.0988 39.0732 61.0593 39.1543 61.005 39.2253C60.9507 39.2964 60.8827 39.356 60.805 39.4006C60.7273 39.4452 60.6414 39.474 60.5524 39.4852L60.468 39.4776Z" fill="white"/>
<path d="M62.133 70.2543C61.9621 70.2546 61.7935 70.2155 61.6404 70.14C61.4873 70.0645 61.3539 69.9547 61.2506 69.8193L53.6394 59.9369C53.4705 59.704 53.3987 59.4152 53.4387 59.1309C53.4787 58.8465 53.6276 58.5885 53.8542 58.4106C54.0868 58.24 54.377 58.1661 54.6634 58.2046C54.9498 58.243 55.21 58.3908 55.3887 58.6167L62.9846 68.4915C63.1543 68.7235 63.2275 69.0116 63.1889 69.2959C63.1503 69.5802 63.0029 69.8388 62.7775 70.0177C62.5921 70.1604 62.3671 70.243 62.133 70.2543Z" fill="white"/>
<path d="M30.7183 44H29.8198C29.7938 44 29.7808 43.987 29.7808 43.9609L29.7964 38.4648C29.7964 38.444 29.8068 38.4336 29.8277 38.4336H32.3902C32.4162 38.4336 32.4292 38.444 32.4292 38.4648V39.3672C32.4292 39.388 32.4188 39.3984 32.398 39.3984H30.7573V40.6406H32.398C32.4188 40.6406 32.4292 40.6536 32.4292 40.6797L32.437 41.5859C32.437 41.6068 32.424 41.6172 32.398 41.6172H30.7573V43.9609C30.7573 43.987 30.7443 44 30.7183 44ZM34.4684 44.0781C34.1846 44.0781 33.9229 44.0052 33.6833 43.8594C33.4463 43.7135 33.2549 43.5195 33.1091 43.2773C32.9658 43.0326 32.8942 42.7643 32.8942 42.4727L32.902 39.9375C32.902 39.6406 32.9736 39.3737 33.1169 39.1367C33.2575 38.8971 33.4476 38.7057 33.6872 38.5625C33.9268 38.4167 34.1872 38.3438 34.4684 38.3438C34.7601 38.3438 35.0218 38.4154 35.2536 38.5586C35.488 38.7018 35.6755 38.8945 35.8161 39.1367C35.9593 39.3763 36.0309 39.6432 36.0309 39.9375L36.0387 42.4727C36.0387 42.7643 35.9684 43.0312 35.8278 43.2734C35.6846 43.5182 35.4945 43.7135 35.2575 43.8594C35.0205 44.0052 34.7575 44.0781 34.4684 44.0781ZM34.4684 43.1133C34.6299 43.1133 34.7705 43.0482 34.8903 42.918C35.0101 42.7852 35.07 42.6367 35.07 42.4727L35.0622 39.9375C35.0622 39.7604 35.0062 39.6107 34.8942 39.4883C34.7822 39.3659 34.6403 39.3047 34.4684 39.3047C34.3044 39.3047 34.1637 39.3646 34.0466 39.4844C33.9294 39.6042 33.8708 39.7552 33.8708 39.9375V42.4727C33.8708 42.6471 33.9294 42.7982 34.0466 42.9258C34.1637 43.0508 34.3044 43.1133 34.4684 43.1133ZM37.9569 44.0781C37.6678 44.0781 37.4035 44.0052 37.1639 43.8594C36.9269 43.7135 36.7381 43.5182 36.5975 43.2734C36.4595 43.026 36.3905 42.7513 36.3905 42.4492L36.3983 39.9531C36.3983 39.6562 36.466 39.388 36.6014 39.1484C36.7368 38.9062 36.923 38.7122 37.16 38.5664C37.3996 38.418 37.6652 38.3438 37.9569 38.3438C38.2537 38.3438 38.5181 38.4154 38.7498 38.5586C38.9842 38.7018 39.1704 38.8958 39.3084 39.1406C39.4491 39.3828 39.5194 39.6536 39.5194 39.9531V40.3203C39.5194 40.3411 39.509 40.3516 39.4881 40.3516H38.5897C38.5689 40.3516 38.5584 40.3411 38.5584 40.3203V39.9531C38.5584 39.776 38.5011 39.6237 38.3866 39.4961C38.272 39.3685 38.1287 39.3047 37.9569 39.3047C37.7668 39.3047 37.6209 39.3698 37.5194 39.5C37.4178 39.6302 37.367 39.7812 37.367 39.9531V42.4492C37.367 42.6445 37.4243 42.8047 37.5389 42.9297C37.6535 43.0521 37.7928 43.1133 37.9569 43.1133C38.1287 43.1133 38.272 43.0456 38.3866 42.9102C38.5011 42.7721 38.5584 42.6185 38.5584 42.4492V42.0781C38.5584 42.0573 38.5689 42.0469 38.5897 42.0469H39.4959C39.5168 42.0469 39.5272 42.0573 39.5272 42.0781V42.4492C39.5272 42.7487 39.4569 43.0221 39.3162 43.2695C39.173 43.5143 38.9842 43.7109 38.7498 43.8594C38.5155 44.0052 38.2511 44.0781 37.9569 44.0781ZM41.4219 44.0781C41.1406 44.0781 40.8802 44.0052 40.6406 43.8594C40.401 43.7135 40.2096 43.5182 40.0664 43.2734C39.9258 43.026 39.8555 42.7565 39.8555 42.4648L39.8711 38.4648C39.8711 38.444 39.8815 38.4336 39.9023 38.4336H40.8008C40.8216 38.4336 40.832 38.444 40.832 38.4648V42.4648C40.832 42.6445 40.8893 42.7982 41.0039 42.9258C41.1185 43.0508 41.2578 43.1133 41.4219 43.1133C41.5938 43.1133 41.737 43.0508 41.8516 42.9258C41.9661 42.7982 42.0234 42.6445 42.0234 42.4648V38.4648C42.0234 38.444 42.0339 38.4336 42.0547 38.4336H42.9531C42.974 38.4336 42.9844 38.444 42.9844 38.4648L43 42.4648C43 42.7591 42.9297 43.0299 42.7891 43.2773C42.6458 43.5221 42.4557 43.7174 42.2188 43.8633C41.9818 44.0065 41.7161 44.0781 41.4219 44.0781ZM44.8283 44.0781C44.5444 44.0781 44.2827 44.0052 44.0431 43.8594C43.8061 43.7135 43.616 43.5195 43.4728 43.2773C43.3322 43.0326 43.2619 42.7643 43.2619 42.4727V42.1055C43.2619 42.0768 43.2749 42.0625 43.3009 42.0625H44.1994C44.2202 42.0625 44.2306 42.0768 44.2306 42.1055V42.4727C44.2306 42.6471 44.2892 42.7982 44.4064 42.9258C44.5236 43.0508 44.6642 43.1133 44.8283 43.1133C44.9949 43.1133 45.1369 43.0495 45.2541 42.9219C45.3712 42.7917 45.4298 42.6419 45.4298 42.4727C45.4298 42.2773 45.3022 42.1068 45.047 41.9609C45.0054 41.9349 44.9507 41.9036 44.883 41.8672C44.8179 41.8281 44.7397 41.7839 44.6486 41.7344C44.5574 41.6849 44.4689 41.6367 44.383 41.5898C44.297 41.5404 44.2137 41.4935 44.133 41.4492C43.8413 41.2773 43.6239 41.0625 43.4806 40.8047C43.34 40.5443 43.2697 40.2526 43.2697 39.9297C43.2697 39.6328 43.3426 39.3646 43.4884 39.125C43.6343 38.888 43.8244 38.7005 44.0587 38.5625C44.2957 38.4219 44.5522 38.3516 44.8283 38.3516C45.1121 38.3516 45.3726 38.4219 45.6095 38.5625C45.8465 38.7057 46.0353 38.8958 46.1759 39.1328C46.3192 39.3698 46.3908 39.6354 46.3908 39.9297V40.5859C46.3908 40.6068 46.3804 40.6172 46.3595 40.6172H45.4611C45.4403 40.6172 45.4298 40.6068 45.4298 40.5859L45.422 39.9297C45.422 39.7422 45.3634 39.5898 45.2462 39.4727C45.1291 39.3555 44.9897 39.2969 44.8283 39.2969C44.6642 39.2969 44.5236 39.3594 44.4064 39.4844C44.2892 39.6094 44.2306 39.7578 44.2306 39.9297C44.2306 40.1042 44.2671 40.25 44.34 40.3672C44.4155 40.4844 44.5522 40.5964 44.7502 40.7031C44.771 40.7135 44.8192 40.7396 44.8947 40.7812C44.9702 40.8229 45.0535 40.8698 45.1447 40.9219C45.2384 40.9714 45.3231 41.0169 45.3986 41.0586C45.4741 41.0977 45.5197 41.1211 45.5353 41.1289C45.8009 41.2773 46.0106 41.4596 46.1642 41.6758C46.3205 41.8919 46.3986 42.1576 46.3986 42.4727C46.3986 42.7773 46.3283 43.0508 46.1877 43.293C46.0444 43.5352 45.8543 43.7266 45.6173 43.8672C45.3804 44.0078 45.1173 44.0781 44.8283 44.0781ZM49.4105 44H46.8245C46.8037 44 46.7933 43.987 46.7933 43.9609L46.8011 38.4648C46.8011 38.444 46.8115 38.4336 46.8323 38.4336H49.4027C49.4235 38.4336 49.4339 38.4466 49.4339 38.4727V39.3672C49.4339 39.388 49.4235 39.3984 49.4027 39.3984H47.762V40.6484H49.4027C49.4235 40.6484 49.4339 40.6589 49.4339 40.6797L49.4417 41.5859C49.4417 41.6068 49.4313 41.6172 49.4105 41.6172H47.762V43.0156H49.4105C49.4313 43.0156 49.4417 43.0286 49.4417 43.0547V43.9688C49.4417 43.9896 49.4313 44 49.4105 44ZM50.9302 44H50.0239C50.0031 44 49.9927 43.987 49.9927 43.9609L50.0083 38.4648C50.0083 38.444 50.0187 38.4336 50.0395 38.4336H51.6567C51.9458 38.4336 52.2114 38.5039 52.4536 38.6445C52.6958 38.7852 52.8885 38.974 53.0317 39.2109C53.1776 39.4479 53.2505 39.7161 53.2505 40.0156C53.2505 40.2109 53.2205 40.388 53.1606 40.5469C53.1007 40.7057 53.0304 40.8398 52.9497 40.9492C52.8716 41.0586 52.7999 41.1393 52.7348 41.1914C53.0239 41.5117 53.1684 41.888 53.1684 42.3203L53.1763 43.9609C53.1763 43.987 53.1632 44 53.1372 44H52.2309C52.2101 44 52.1997 43.9922 52.1997 43.9766V42.3203C52.1997 42.1276 52.132 41.9609 51.9966 41.8203C51.8611 41.6797 51.6945 41.6094 51.4966 41.6094H50.9692L50.9614 43.9609C50.9614 43.987 50.951 44 50.9302 44ZM51.6567 39.3906H50.9692V40.6484H51.6567C51.8208 40.6484 51.9666 40.5872 52.0942 40.4648C52.2244 40.3424 52.2895 40.1927 52.2895 40.0156C52.2895 39.8464 52.227 39.7005 52.102 39.5781C51.977 39.4531 51.8286 39.3906 51.6567 39.3906Z" fill="white"/>
</svg>
