<svg width="25" height="28" viewBox="0 0 25 28" fill="none" xmlns="http://www.w3.org/2000/svg">
<path d="M3.72998 18.6465C3.18799 18.6465 2.69971 18.5122 2.26514 18.2437C1.82568 17.9751 1.47168 17.6138 1.20312 17.1597C0.939453 16.7056 0.807617 16.1978 0.807617 15.6362V10.8828C0.807617 10.3359 0.941895 9.83789 1.21045 9.38867C1.47412 8.93457 1.82812 8.57324 2.27246 8.30469C2.7168 8.03125 3.20264 7.89453 3.72998 7.89453C4.28174 7.89453 4.77979 8.02637 5.22412 8.29004C5.66846 8.55859 6.02002 8.91748 6.27881 9.3667C6.54248 9.81592 6.67432 10.3213 6.67432 10.8828V11.5713C6.67432 11.6104 6.6499 11.6299 6.60107 11.6299H4.9165C4.87744 11.6299 4.85791 11.6104 4.85791 11.5713V11C4.85791 10.6191 4.75049 10.3042 4.53564 10.0552C4.3208 9.80615 4.05225 9.68164 3.72998 9.68164C3.44189 9.68164 3.18555 9.80127 2.96094 10.0405C2.73633 10.2798 2.62402 10.5605 2.62402 10.8828V15.6362C2.62402 15.9634 2.73389 16.2466 2.95361 16.4858C3.17334 16.7202 3.43213 16.8374 3.72998 16.8374C4.05225 16.8374 4.3208 16.7227 4.53564 16.4932C4.75049 16.2588 4.85791 15.9731 4.85791 15.6362V14.8965H3.81055C3.75684 14.8965 3.72998 14.8721 3.72998 14.8232V13.146C3.72998 13.0972 3.75684 13.0728 3.81055 13.0728H6.61572C6.65479 13.0728 6.67432 13.0972 6.67432 13.146V15.6362C6.67432 16.1978 6.54248 16.7056 6.27881 17.1597C6.01025 17.6138 5.65625 17.9751 5.2168 18.2437C4.77734 18.5122 4.28174 18.6465 3.72998 18.6465ZM9.76221 18.6465C9.22998 18.6465 8.73926 18.5098 8.29004 18.2363C7.8457 17.9629 7.48682 17.5991 7.21338 17.145C6.94482 16.686 6.81055 16.1831 6.81055 15.6362L6.8252 10.8828C6.8252 10.3262 6.95947 9.82568 7.22803 9.38135C7.4917 8.93213 7.84814 8.57324 8.29736 8.30469C8.74658 8.03125 9.23486 7.89453 9.76221 7.89453C10.3091 7.89453 10.7998 8.02881 11.2344 8.29736C11.6738 8.56592 12.0254 8.92725 12.2891 9.38135C12.5576 9.83057 12.6919 10.3311 12.6919 10.8828L12.7065 15.6362C12.7065 16.1831 12.5747 16.6836 12.311 17.1377C12.0425 17.5967 11.686 17.9629 11.2417 18.2363C10.7974 18.5098 10.3042 18.6465 9.76221 18.6465ZM9.76221 16.8374C10.0649 16.8374 10.3286 16.7153 10.5532 16.4712C10.7778 16.2222 10.8901 15.9438 10.8901 15.6362L10.8755 10.8828C10.8755 10.5508 10.7705 10.27 10.5605 10.0405C10.3506 9.81104 10.0845 9.69629 9.76221 9.69629C9.45459 9.69629 9.19092 9.80859 8.97119 10.0332C8.75146 10.2578 8.6416 10.541 8.6416 10.8828V15.6362C8.6416 15.9634 8.75146 16.2466 8.97119 16.4858C9.19092 16.7202 9.45459 16.8374 9.76221 16.8374ZM16.2925 18.5H14.6006C14.5566 18.5 14.5347 18.4756 14.5347 18.4268V9.87207H12.5864C12.5376 9.87207 12.5132 9.84766 12.5132 9.79883L12.5278 8.12158C12.5278 8.08252 12.5474 8.06299 12.5864 8.06299H18.2847C18.3384 8.06299 18.3652 8.08252 18.3652 8.12158V9.79883C18.3652 9.84766 18.3457 9.87207 18.3066 9.87207H16.3364L16.3511 18.4268C16.3511 18.4756 16.3315 18.5 16.2925 18.5ZM21.1235 18.6465C20.5913 18.6465 20.1006 18.5098 19.6514 18.2363C19.207 17.9629 18.8481 17.5991 18.5747 17.145C18.3062 16.686 18.1719 16.1831 18.1719 15.6362L18.1865 10.8828C18.1865 10.3262 18.3208 9.82568 18.5894 9.38135C18.853 8.93213 19.2095 8.57324 19.6587 8.30469C20.1079 8.03125 20.5962 7.89453 21.1235 7.89453C21.6704 7.89453 22.1611 8.02881 22.5957 8.29736C23.0352 8.56592 23.3867 8.92725 23.6504 9.38135C23.9189 9.83057 24.0532 10.3311 24.0532 10.8828L24.0679 15.6362C24.0679 16.1831 23.936 16.6836 23.6724 17.1377C23.4038 17.5967 23.0474 17.9629 22.603 18.2363C22.1587 18.5098 21.6655 18.6465 21.1235 18.6465ZM21.1235 16.8374C21.4263 16.8374 21.6899 16.7153 21.9146 16.4712C22.1392 16.2222 22.2515 15.9438 22.2515 15.6362L22.2368 10.8828C22.2368 10.5508 22.1318 10.27 21.9219 10.0405C21.7119 9.81104 21.4458 9.69629 21.1235 9.69629C20.8159 9.69629 20.5522 9.80859 20.3325 10.0332C20.1128 10.2578 20.0029 10.541 20.0029 10.8828V15.6362C20.0029 15.9634 20.1128 16.2466 20.3325 16.4858C20.5522 16.7202 20.8159 16.8374 21.1235 16.8374Z" fill="white"/>
</svg>
