<svg width="60" height="60" viewBox="0 0 60 60" fill="none" xmlns="http://www.w3.org/2000/svg">
<g clip-path="url(#clip0_11_2006)">
<path d="M43.6586 43.6587C51.1437 36.1736 51.1437 24.0379 43.6586 16.5529C36.1736 9.06785 24.0379 9.06785 16.5529 16.5529C9.06783 24.0379 9.06783 36.1736 16.5529 43.6587C24.0379 51.1437 36.1736 51.1437 43.6586 43.6587Z" stroke="white" stroke-width="2" stroke-linecap="round" stroke-linejoin="round"/>
<path d="M36.5878 36.5876C40.1676 33.0078 40.1676 27.2038 36.5878 23.624C33.008 20.0442 27.204 20.0442 23.6242 23.624C20.0444 27.2038 20.0444 33.0078 23.6242 36.5876C27.204 40.1674 33.008 40.1674 36.5878 36.5876Z" fill="white" stroke="white" stroke-width="3" stroke-linecap="round" stroke-linejoin="round"/>
<path d="M10.9424 30.1058H22.4352" stroke="white" stroke-width="2" stroke-linecap="round" stroke-linejoin="round"/>
<path d="M37.7773 30.1058H49.2702" stroke="white" stroke-width="2" stroke-linecap="round" stroke-linejoin="round"/>
<path d="M30.1058 22.4348L30.1058 10.942" stroke="white" stroke-width="2" stroke-linecap="round" stroke-linejoin="round"/>
<path d="M30.1064 22.4349L30.1064 12.8665" stroke="white" stroke-width="2" stroke-linecap="round" stroke-linejoin="round"/>
<path d="M30.1058 49.2696L30.1058 37.7767" stroke="white" stroke-width="2" stroke-linecap="round" stroke-linejoin="round"/>
<path d="M21.6106 33.3012C21.3216 33.3012 21.0611 33.2296 20.8294 33.0864C20.595 32.9431 20.4062 32.7504 20.263 32.5082C20.1223 32.2661 20.052 31.9952 20.052 31.6957V29.1606C20.052 28.8689 20.1236 28.6033 20.2669 28.3637C20.4075 28.1215 20.5963 27.9288 20.8333 27.7856C21.0703 27.6397 21.3294 27.5668 21.6106 27.5668C21.9049 27.5668 22.1705 27.6371 22.4075 27.7778C22.6445 27.921 22.832 28.1124 22.97 28.352C23.1106 28.5916 23.1809 28.8611 23.1809 29.1606V29.5278C23.1809 29.5486 23.1679 29.559 23.1419 29.559H22.2434C22.2226 29.559 22.2122 29.5486 22.2122 29.5278V29.2231C22.2122 29.02 22.1549 28.852 22.0403 28.7192C21.9257 28.5864 21.7825 28.52 21.6106 28.52C21.457 28.52 21.3203 28.5838 21.2005 28.7114C21.0807 28.839 21.0208 28.9887 21.0208 29.1606V31.6957C21.0208 31.8702 21.0794 32.0213 21.1966 32.1489C21.3138 32.2739 21.4518 32.3364 21.6106 32.3364C21.7825 32.3364 21.9257 32.2752 22.0403 32.1528C22.1549 32.0278 22.2122 31.8754 22.2122 31.6957V31.3012H21.6536C21.6249 31.3012 21.6106 31.2882 21.6106 31.2621V30.3676C21.6106 30.3416 21.6249 30.3286 21.6536 30.3286H23.1497C23.1705 30.3286 23.1809 30.3416 23.1809 30.3676V31.6957C23.1809 31.9952 23.1106 32.2661 22.97 32.5082C22.8268 32.7504 22.638 32.9431 22.4036 33.0864C22.1692 33.2296 21.9049 33.3012 21.6106 33.3012ZM24.98 33.3012C24.6987 33.3012 24.4383 33.2283 24.1987 33.0825C23.9592 32.9366 23.7678 32.7413 23.6245 32.4965C23.4839 32.2491 23.4136 31.9796 23.4136 31.6879L23.4292 27.6879C23.4292 27.6671 23.4396 27.6567 23.4605 27.6567H24.3589C24.3797 27.6567 24.3902 27.6671 24.3902 27.6879V31.6879C24.3902 31.8676 24.4474 32.0213 24.562 32.1489C24.6766 32.2739 24.8159 32.3364 24.98 32.3364C25.1519 32.3364 25.2951 32.2739 25.4097 32.1489C25.5243 32.0213 25.5816 31.8676 25.5816 31.6879V27.6879C25.5816 27.6671 25.592 27.6567 25.6128 27.6567H26.5112C26.5321 27.6567 26.5425 27.6671 26.5425 27.6879L26.5581 31.6879C26.5581 31.9822 26.4878 32.253 26.3472 32.5004C26.204 32.7452 26.0139 32.9405 25.7769 33.0864C25.5399 33.2296 25.2743 33.3012 24.98 33.3012ZM27.8923 33.2231H26.9861C26.9601 33.2231 26.947 33.2101 26.947 33.184L26.9548 27.6879C26.9548 27.6671 26.9653 27.6567 26.9861 27.6567H27.8845C27.9054 27.6567 27.9158 27.6671 27.9158 27.6879L27.9236 33.184C27.9236 33.2101 27.9132 33.2231 27.8923 33.2231ZM29.8594 33.2153L28.4258 33.2231C28.3997 33.2231 28.3867 33.2101 28.3867 33.184L28.4023 27.6879C28.4023 27.6671 28.4128 27.6567 28.4336 27.6567L29.9297 27.6489C30.2266 27.6411 30.4948 27.7088 30.7344 27.852C30.9766 27.9952 31.1693 28.1892 31.3125 28.434C31.4583 28.6762 31.5312 28.9444 31.5312 29.2387V31.5356C31.5312 31.8429 31.457 32.1241 31.3086 32.3793C31.1576 32.6319 30.957 32.8338 30.707 32.9848C30.457 33.1332 30.1745 33.2101 29.8594 33.2153ZM29.9297 28.6059L29.3711 28.6137L29.3633 32.2387H29.8594C30.0573 32.2387 30.224 32.1697 30.3594 32.0317C30.4948 31.8937 30.5625 31.7283 30.5625 31.5356V29.2309C30.5625 29.0616 30.5 28.9145 30.375 28.7895C30.25 28.6619 30.1016 28.6007 29.9297 28.6059ZM32.8655 33.2231H31.9592C31.9332 33.2231 31.9202 33.2101 31.9202 33.184L31.928 27.6879C31.928 27.6671 31.9384 27.6567 31.9592 27.6567H32.8577C32.8785 27.6567 32.8889 27.6671 32.8889 27.6879L32.8967 33.184C32.8967 33.2101 32.8863 33.2231 32.8655 33.2231ZM34.2309 33.2231H33.4302C33.3885 33.2231 33.3677 33.2049 33.3677 33.1684L33.3598 27.7192C33.3598 27.6775 33.3807 27.6567 33.4223 27.6567H34.145L35.4966 30.809L35.4575 27.7192C35.4575 27.6775 35.4809 27.6567 35.5278 27.6567H36.3208C36.352 27.6567 36.3677 27.6775 36.3677 27.7192L36.3755 33.1762C36.3755 33.2075 36.3624 33.2231 36.3364 33.2231H35.6333L34.2466 30.2778L34.3052 33.1606C34.3052 33.2022 34.2804 33.2231 34.2309 33.2231ZM38.2956 33.3012C38.0066 33.3012 37.7461 33.2296 37.5144 33.0864C37.28 32.9431 37.0912 32.7504 36.948 32.5082C36.8073 32.2661 36.737 31.9952 36.737 31.6957V29.1606C36.737 28.8689 36.8086 28.6033 36.9519 28.3637C37.0925 28.1215 37.2813 27.9288 37.5183 27.7856C37.7553 27.6397 38.0144 27.5668 38.2956 27.5668C38.5899 27.5668 38.8555 27.6371 39.0925 27.7778C39.3295 27.921 39.517 28.1124 39.655 28.352C39.7956 28.5916 39.8659 28.8611 39.8659 29.1606V29.5278C39.8659 29.5486 39.8529 29.559 39.8269 29.559H38.9284C38.9076 29.559 38.8972 29.5486 38.8972 29.5278V29.2231C38.8972 29.02 38.8399 28.852 38.7253 28.7192C38.6107 28.5864 38.4675 28.52 38.2956 28.52C38.142 28.52 38.0053 28.5838 37.8855 28.7114C37.7657 28.839 37.7058 28.9887 37.7058 29.1606V31.6957C37.7058 31.8702 37.7644 32.0213 37.8816 32.1489C37.9987 32.2739 38.1368 32.3364 38.2956 32.3364C38.4675 32.3364 38.6107 32.2752 38.7253 32.1528C38.8399 32.0278 38.8972 31.8754 38.8972 31.6957V31.3012H38.3386C38.3099 31.3012 38.2956 31.2882 38.2956 31.2621V30.3676C38.2956 30.3416 38.3099 30.3286 38.3386 30.3286H39.8347C39.8555 30.3286 39.8659 30.3416 39.8659 30.3676V31.6957C39.8659 31.9952 39.7956 32.2661 39.655 32.5082C39.5118 32.7504 39.323 32.9431 39.0886 33.0864C38.8542 33.2296 38.5899 33.3012 38.2956 33.3012Z" fill="#272727" fill-opacity="0.85"/>
</g>
<defs>
<clipPath id="clip0_11_2006">
<rect width="46" height="46" fill="white" transform="translate(7 7)"/>
</clipPath>
</defs>
</svg>
