<svg width="83" height="84" viewBox="0 0 83 84" fill="none" xmlns="http://www.w3.org/2000/svg">
<path d="M16.9122 66C19.1017 11.3566 43.3684 43.2319 55.228 66" stroke="white" stroke-width="2"/>
<path d="M17 65.5428H68.5439" stroke="white" stroke-width="2" stroke-linecap="round"/>
<path d="M16.4562 65.5429L68 27.1429" stroke="white" stroke-linecap="round"/>
<path d="M16.4561 65.5429V18" stroke="white" stroke-width="2" stroke-linecap="round"/>
<path d="M22.5619 23H21.6556C21.6348 23 21.6244 22.987 21.6244 22.9609L21.6322 17.4648C21.6322 17.444 21.6452 17.4336 21.6713 17.4336H22.5619C22.5879 17.4336 22.6009 17.444 22.6009 17.4648L22.5931 19.6406H23.7923V17.4648C23.7923 17.444 23.8028 17.4336 23.8236 17.4336H24.7142C24.7403 17.4336 24.7533 17.444 24.7533 17.4648L24.7689 22.9609C24.7689 22.987 24.7559 23 24.7298 23H23.8314C23.8054 23 23.7923 22.987 23.7923 22.9609V20.6094H22.5931V22.9609C22.5931 22.987 22.5827 23 22.5619 23ZM26.2066 23H25.3003C25.2743 23 25.2613 22.987 25.2613 22.9609L25.2691 17.4648C25.2691 17.444 25.2795 17.4336 25.3003 17.4336H26.1988C26.2196 17.4336 26.23 17.444 26.23 17.4648L26.2378 22.9609C26.2378 22.987 26.2274 23 26.2066 23ZM28.1403 23.0781C27.8565 23.0781 27.5947 23.0052 27.3552 22.8594C27.1182 22.7135 26.9281 22.5195 26.7848 22.2773C26.6442 22.0326 26.5739 21.7643 26.5739 21.4727V21.1055C26.5739 21.0768 26.5869 21.0625 26.613 21.0625H27.5114C27.5322 21.0625 27.5427 21.0768 27.5427 21.1055V21.4727C27.5427 21.6471 27.6013 21.7982 27.7184 21.9258C27.8356 22.0508 27.9763 22.1133 28.1403 22.1133C28.307 22.1133 28.4489 22.0495 28.5661 21.9219C28.6833 21.7917 28.7419 21.6419 28.7419 21.4727C28.7419 21.2773 28.6143 21.1068 28.3591 20.9609C28.3174 20.9349 28.2627 20.9036 28.195 20.8672C28.1299 20.8281 28.0518 20.7839 27.9606 20.7344C27.8695 20.6849 27.7809 20.6367 27.695 20.5898C27.6091 20.5404 27.5257 20.4935 27.445 20.4492C27.1533 20.2773 26.9359 20.0625 26.7927 19.8047C26.652 19.5443 26.5817 19.2526 26.5817 18.9297C26.5817 18.6328 26.6546 18.3646 26.8005 18.125C26.9463 17.888 27.1364 17.7005 27.3708 17.5625C27.6078 17.4219 27.8643 17.3516 28.1403 17.3516C28.4242 17.3516 28.6846 17.4219 28.9216 17.5625C29.1585 17.7057 29.3473 17.8958 29.488 18.1328C29.6312 18.3698 29.7028 18.6354 29.7028 18.9297V19.5859C29.7028 19.6068 29.6924 19.6172 29.6716 19.6172H28.7731C28.7523 19.6172 28.7419 19.6068 28.7419 19.5859L28.7341 18.9297C28.7341 18.7422 28.6755 18.5898 28.5583 18.4727C28.4411 18.3555 28.3018 18.2969 28.1403 18.2969C27.9763 18.2969 27.8356 18.3594 27.7184 18.4844C27.6013 18.6094 27.5427 18.7578 27.5427 18.9297C27.5427 19.1042 27.5791 19.25 27.652 19.3672C27.7276 19.4844 27.8643 19.5964 28.0622 19.7031C28.083 19.7135 28.1312 19.7396 28.2067 19.7812C28.2822 19.8229 28.3656 19.8698 28.4567 19.9219C28.5505 19.9714 28.6351 20.0169 28.7106 20.0586C28.7861 20.0977 28.8317 20.1211 28.8473 20.1289C29.113 20.2773 29.3226 20.4596 29.4763 20.6758C29.6325 20.8919 29.7106 21.1576 29.7106 21.4727C29.7106 21.7773 29.6403 22.0508 29.4997 22.293C29.3565 22.5352 29.1664 22.7266 28.9294 22.8672C28.6924 23.0078 28.4294 23.0781 28.1403 23.0781ZM31.6483 23H30.7459C30.7225 23 30.7108 22.987 30.7108 22.9609V18.3984H29.6717C29.6457 18.3984 29.6327 18.3854 29.6327 18.3594L29.6405 17.4648C29.6405 17.444 29.6509 17.4336 29.6717 17.4336H32.7108C32.7394 17.4336 32.7538 17.444 32.7538 17.4648V18.3594C32.7538 18.3854 32.7433 18.3984 32.7225 18.3984H31.6717L31.6795 22.9609C31.6795 22.987 31.6691 23 31.6483 23ZM34.3008 23.0781C34.0169 23.0781 33.7552 23.0052 33.5156 22.8594C33.2786 22.7135 33.0872 22.5195 32.9414 22.2773C32.7982 22.0326 32.7266 21.7643 32.7266 21.4727L32.7344 18.9375C32.7344 18.6406 32.806 18.3737 32.9492 18.1367C33.0898 17.8971 33.2799 17.7057 33.5195 17.5625C33.7591 17.4167 34.0195 17.3438 34.3008 17.3438C34.5924 17.3438 34.8542 17.4154 35.0859 17.5586C35.3203 17.7018 35.5078 17.8945 35.6484 18.1367C35.7917 18.3763 35.8633 18.6432 35.8633 18.9375L35.8711 21.4727C35.8711 21.7643 35.8008 22.0312 35.6602 22.2734C35.5169 22.5182 35.3268 22.7135 35.0898 22.8594C34.8529 23.0052 34.5898 23.0781 34.3008 23.0781ZM34.3008 22.1133C34.4622 22.1133 34.6029 22.0482 34.7227 21.918C34.8424 21.7852 34.9023 21.6367 34.9023 21.4727L34.8945 18.9375C34.8945 18.7604 34.8385 18.6107 34.7266 18.4883C34.6146 18.3659 34.4727 18.3047 34.3008 18.3047C34.1367 18.3047 33.9961 18.3646 33.8789 18.4844C33.7617 18.6042 33.7031 18.7552 33.7031 18.9375V21.4727C33.7031 21.6471 33.7617 21.7982 33.8789 21.9258C33.9961 22.0508 34.1367 22.1133 34.3008 22.1133ZM37.7814 23.0781C37.4923 23.0781 37.2319 23.0065 37.0002 22.8633C36.7658 22.7201 36.577 22.5273 36.4338 22.2852C36.2931 22.043 36.2228 21.7721 36.2228 21.4727V18.9375C36.2228 18.6458 36.2944 18.3802 36.4377 18.1406C36.5783 17.8984 36.7671 17.7057 37.0041 17.5625C37.241 17.4167 37.5002 17.3438 37.7814 17.3438C38.0757 17.3438 38.3413 17.4141 38.5783 17.5547C38.8153 17.6979 39.0028 17.8893 39.1408 18.1289C39.2814 18.3685 39.3517 18.638 39.3517 18.9375V19.3047C39.3517 19.3255 39.3387 19.3359 39.3127 19.3359H38.4142C38.3934 19.3359 38.383 19.3255 38.383 19.3047V19C38.383 18.7969 38.3257 18.6289 38.2111 18.4961C38.0965 18.3633 37.9533 18.2969 37.7814 18.2969C37.6278 18.2969 37.491 18.3607 37.3713 18.4883C37.2515 18.6159 37.1916 18.7656 37.1916 18.9375V21.4727C37.1916 21.6471 37.2502 21.7982 37.3673 21.9258C37.4845 22.0508 37.6226 22.1133 37.7814 22.1133C37.9533 22.1133 38.0965 22.0521 38.2111 21.9297C38.3257 21.8047 38.383 21.6523 38.383 21.4727V21.0781H37.8244C37.7957 21.0781 37.7814 21.0651 37.7814 21.0391V20.1445C37.7814 20.1185 37.7957 20.1055 37.8244 20.1055H39.3205C39.3413 20.1055 39.3517 20.1185 39.3517 20.1445V21.4727C39.3517 21.7721 39.2814 22.043 39.1408 22.2852C38.9976 22.5273 38.8088 22.7201 38.5744 22.8633C38.34 23.0065 38.0757 23.0781 37.7814 23.0781ZM40.6956 23H39.7894C39.7685 23 39.7581 22.987 39.7581 22.9609L39.7738 17.4648C39.7738 17.444 39.7842 17.4336 39.805 17.4336H41.4222C41.7113 17.4336 41.9769 17.5039 42.2191 17.6445C42.4613 17.7852 42.654 17.974 42.7972 18.2109C42.943 18.4479 43.0159 18.7161 43.0159 19.0156C43.0159 19.2109 42.986 19.388 42.9261 19.5469C42.8662 19.7057 42.7959 19.8398 42.7152 19.9492C42.637 20.0586 42.5654 20.1393 42.5003 20.1914C42.7894 20.5117 42.9339 20.888 42.9339 21.3203L42.9417 22.9609C42.9417 22.987 42.9287 23 42.9027 23H41.9964C41.9756 23 41.9652 22.9922 41.9652 22.9766V21.3203C41.9652 21.1276 41.8974 20.9609 41.762 20.8203C41.6266 20.6797 41.4599 20.6094 41.262 20.6094H40.7347L40.7269 22.9609C40.7269 22.987 40.7165 23 40.6956 23ZM41.4222 18.3906H40.7347V19.6484H41.4222C41.5863 19.6484 41.7321 19.5872 41.8597 19.4648C41.9899 19.3424 42.055 19.1927 42.055 19.0156C42.055 18.8464 41.9925 18.7005 41.8675 18.5781C41.7425 18.4531 41.5941 18.3906 41.4222 18.3906ZM43.188 22.9609L44.1802 17.4648C44.1854 17.444 44.1984 17.4336 44.2192 17.4336H45.3794C45.4002 17.4336 45.4132 17.444 45.4184 17.4648L46.3716 22.9609C46.3742 22.987 46.3638 23 46.3403 23H45.4536C45.4276 23 45.4132 22.987 45.4106 22.9609L45.3247 22.375H44.2348L44.1489 22.9609C44.1463 22.987 44.1333 23 44.1098 23H43.2192C43.1984 23 43.188 22.987 43.188 22.9609ZM44.7544 19.2734L44.395 21.5195H45.1645L44.8364 19.2734L44.7895 18.9766L44.7544 19.2734ZM47.6491 23H46.7428C46.722 23 46.7116 22.987 46.7116 22.9609L46.7272 17.4648C46.7272 17.444 46.7376 17.4336 46.7584 17.4336H47.735C47.7558 17.4336 47.7741 17.444 47.7897 17.4648L48.5202 18.5195L49.2467 17.4648C49.2623 17.444 49.2819 17.4336 49.3053 17.4336H50.2858C50.3092 17.4336 50.3209 17.444 50.3209 17.4648L50.3366 22.9609C50.3366 22.987 50.3261 23 50.3053 23H49.3991C49.3782 23 49.3678 22.987 49.3678 22.9609L49.36 18.8789L48.5202 20.0977L47.6881 18.8789L47.6803 22.9609C47.6803 22.987 47.6699 23 47.6491 23Z" fill="white"/>
</svg>
