<svg width="48" height="48" viewBox="0 0 48 48" fill="none" xmlns="http://www.w3.org/2000/svg">
<g clip-path="url(#clip0_4_42)">
<path d="M42.2 21.2287C43.7752 22.1382 44.5628 22.5929 44.8271 23.1865C45.0576 23.7043 45.0576 24.2957 44.8271 24.8135C44.5628 25.4071 43.7752 25.8618 42.2 26.7713L8.3 46.3435C6.72482 47.2529 5.93722 47.7076 5.29095 47.6397C4.72723 47.5804 4.21514 47.2848 3.88197 46.8262C3.5 46.3005 3.5 45.391 3.5 43.5722V4.42782C3.5 2.60896 3.5 1.69953 3.88197 1.1738C4.21514 0.71523 4.72723 0.419571 5.29095 0.360322C5.93722 0.292395 6.72482 0.747112 8.3 1.65655L42.2 21.2287Z" fill="white" fill-opacity="0.6"/>
</g>
<defs>
<clipPath id="clip0_4_42">
<rect width="48" height="48" fill="white"/>
</clipPath>
</defs>
</svg>
