<svg width="24" height="12" viewBox="0 0 24 12" fill="none" xmlns="http://www.w3.org/2000/svg">
<path d="M1.77979 11H0.0805664C0.0415039 11 0.0219727 10.9756 0.0219727 10.9268L0.0512695 0.621582C0.0512695 0.58252 0.0708008 0.562988 0.109863 0.562988H1.94092C1.97998 0.562988 2.01416 0.58252 2.04346 0.621582L3.41309 2.59912L4.77539 0.621582C4.80469 0.58252 4.84131 0.562988 4.88525 0.562988H6.72363C6.76758 0.562988 6.78955 0.58252 6.78955 0.621582L6.81885 10.9268C6.81885 10.9756 6.79932 11 6.76025 11H5.06104C5.02197 11 5.00244 10.9756 5.00244 10.9268L4.98779 3.27295L3.41309 5.55811L1.85303 3.27295L1.83838 10.9268C1.83838 10.9756 1.81885 11 1.77979 11ZM10.1045 11.1465C9.57227 11.1465 9.08154 11.0098 8.63232 10.7363C8.18799 10.4629 7.8291 10.0991 7.55566 9.64502C7.28711 9.18604 7.15283 8.68311 7.15283 8.13623L7.16748 3.38281C7.16748 2.82617 7.30176 2.32568 7.57031 1.88135C7.83398 1.43213 8.19043 1.07324 8.63965 0.804688C9.08887 0.53125 9.57715 0.394531 10.1045 0.394531C10.6514 0.394531 11.1421 0.528809 11.5767 0.797363C12.0161 1.06592 12.3677 1.42725 12.6313 1.88135C12.8999 2.33057 13.0342 2.83105 13.0342 3.38281L13.0488 8.13623C13.0488 8.68311 12.917 9.18359 12.6533 9.6377C12.3848 10.0967 12.0283 10.4629 11.584 10.7363C11.1396 11.0098 10.6465 11.1465 10.1045 11.1465ZM10.1045 9.3374C10.4072 9.3374 10.6709 9.21533 10.8955 8.97119C11.1201 8.72217 11.2324 8.44385 11.2324 8.13623L11.2178 3.38281C11.2178 3.05078 11.1128 2.77002 10.9028 2.54053C10.6929 2.31104 10.4268 2.19629 10.1045 2.19629C9.79688 2.19629 9.5332 2.30859 9.31348 2.5332C9.09375 2.75781 8.98389 3.04102 8.98389 3.38281V8.13623C8.98389 8.46338 9.09375 8.74658 9.31348 8.98584C9.5332 9.22021 9.79688 9.3374 10.1045 9.3374ZM16.6274 11H14.811C14.7671 11 14.7427 10.9756 14.7378 10.9268L12.665 0.621582C12.6553 0.58252 12.6748 0.562988 12.7236 0.562988H14.4229C14.4619 0.562988 14.4863 0.58252 14.4961 0.621582L15.7266 7.4917L16.9277 0.621582C16.9375 0.58252 16.9619 0.562988 17.001 0.562988H18.6782C18.7319 0.562988 18.7515 0.58252 18.7368 0.621582L16.7007 10.9268C16.6958 10.9756 16.6714 11 16.6274 11ZM23.7729 11H18.9243C18.8853 11 18.8657 10.9756 18.8657 10.9268L18.8804 0.621582C18.8804 0.58252 18.8999 0.562988 18.939 0.562988H23.7583C23.7974 0.562988 23.8169 0.587402 23.8169 0.63623V2.31348C23.8169 2.35254 23.7974 2.37207 23.7583 2.37207H20.6821V4.71582H23.7583C23.7974 4.71582 23.8169 4.73535 23.8169 4.77441L23.8315 6.47363C23.8315 6.5127 23.812 6.53223 23.7729 6.53223H20.6821V9.1543H23.7729C23.812 9.1543 23.8315 9.17871 23.8315 9.22754V10.9414C23.8315 10.9805 23.812 11 23.7729 11Z" fill="white"/>
</svg>
