<svg width="25" height="27" viewBox="0 0 25 27" fill="none" xmlns="http://www.w3.org/2000/svg">
<path d="M2.07666 18H0.39209C0.343262 18 0.318848 17.9756 0.318848 17.9268L0.348145 7.62158C0.348145 7.58252 0.367676 7.56299 0.406738 7.56299H3.29248C4.21045 7.56299 4.93555 7.84375 5.46777 8.40527C6.00488 8.96191 6.27344 9.72119 6.27344 10.6831C6.27344 11.3862 6.13428 11.999 5.85596 12.5215C5.57275 13.0391 5.20654 13.4395 4.75732 13.7227C4.30811 14.0059 3.81982 14.1475 3.29248 14.1475H2.1499V17.9268C2.1499 17.9756 2.12549 18 2.07666 18ZM3.29248 9.34277L2.1499 9.35742V12.3311H3.29248C3.60986 12.3311 3.88574 12.1797 4.12012 11.877C4.35449 11.5693 4.47168 11.1714 4.47168 10.6831C4.47168 10.2925 4.3667 9.97266 4.15674 9.72363C3.94678 9.46973 3.65869 9.34277 3.29248 9.34277ZM5.91895 17.9268L7.7793 7.62158C7.78906 7.58252 7.81348 7.56299 7.85254 7.56299H10.0278C10.0669 7.56299 10.0913 7.58252 10.1011 7.62158L11.8882 17.9268C11.8931 17.9756 11.8735 18 11.8296 18H10.167C10.1182 18 10.0913 17.9756 10.0864 17.9268L9.92529 16.8281H7.88184L7.7207 17.9268C7.71582 17.9756 7.69141 18 7.64746 18H5.97754C5.93848 18 5.91895 17.9756 5.91895 17.9268ZM8.85596 11.0127L8.18213 15.2241H9.625L9.00977 11.0127L8.92188 10.4561L8.85596 11.0127ZM13.8335 18H12.1343C12.0952 18 12.0757 17.9756 12.0757 17.9268L12.105 7.62158C12.105 7.58252 12.1245 7.56299 12.1636 7.56299H15.1958C15.7378 7.56299 16.2358 7.69482 16.6899 7.9585C17.144 8.22217 17.5054 8.57617 17.7739 9.02051C18.0474 9.46484 18.1841 9.96777 18.1841 10.5293C18.1841 10.8955 18.1279 11.2275 18.0156 11.5254C17.9033 11.8232 17.7715 12.0747 17.6201 12.2798C17.4736 12.4849 17.3394 12.6362 17.2173 12.7339C17.7593 13.3345 18.0303 14.04 18.0303 14.8506L18.0449 17.9268C18.0449 17.9756 18.0205 18 17.9717 18H16.2725C16.2334 18 16.2139 17.9854 16.2139 17.9561V14.8506C16.2139 14.4893 16.0869 14.1768 15.833 13.9131C15.5791 13.6494 15.2666 13.5176 14.8955 13.5176H13.9067L13.8921 17.9268C13.8921 17.9756 13.8726 18 13.8335 18ZM15.1958 9.35742H13.9067V11.7158H15.1958C15.5034 11.7158 15.7769 11.6011 16.0161 11.3716C16.2603 11.1421 16.3823 10.8613 16.3823 10.5293C16.3823 10.2119 16.2651 9.93848 16.0308 9.70898C15.7964 9.47461 15.5181 9.35742 15.1958 9.35742ZM20.3198 18H18.6206C18.5815 18 18.562 17.9756 18.562 17.9268L18.5913 7.63623C18.5913 7.5874 18.6108 7.56299 18.6499 7.56299H20.3345C20.3735 7.56299 20.3931 7.5874 20.3931 7.63623V11.1885L22.7441 7.62158C22.7832 7.58252 22.8198 7.56299 22.854 7.56299H24.5752C24.6191 7.56299 24.6289 7.58252 24.6045 7.62158L22.0117 11.7598L24.9194 17.9414C24.9438 17.9805 24.9194 18 24.8462 18H23.0151C22.9663 18 22.937 17.9805 22.9272 17.9414L20.8984 13.5322L20.3784 14.3525V17.9268C20.3784 17.9756 20.3589 18 20.3198 18Z" fill="white"/>
</svg>
