<svg width="100" height="100" viewBox="0 0 100 100" fill="none" xmlns="http://www.w3.org/2000/svg">
<g clip-path="url(#clip0_9_3)">
<path d="M53.0669 59.3385C53.2555 59.414 53.3686 59.5459 53.4063 59.7345C53.4629 59.9042 53.4252 60.0551 53.2932 60.1871L51.2284 62.2518C51.021 62.4592 50.757 62.4969 50.4365 62.3649L37.8782 57.1041C37.5765 56.9909 37.2466 57.1135 36.8883 57.4718L32.1082 62.2518C31.9763 62.3838 31.9103 62.5064 31.9103 62.6195C31.9291 62.7138 31.9857 62.8081 32.08 62.9023L40.8764 71.6988C41.1781 72.0005 41.1686 72.3116 40.8481 72.6321L39.0096 74.4706C38.8588 74.6215 38.7268 74.6969 38.6136 74.6969C38.4816 74.678 38.3591 74.612 38.2459 74.4989L18.0227 54.2756C17.7587 54.0117 17.7398 53.7665 17.9661 53.5403L25.8574 45.6489C28.0825 43.4239 30.2698 42.1605 32.4194 41.8588C34.569 41.5194 36.5395 42.2454 38.3308 44.0367C39.4056 45.1115 40.1127 46.2335 40.4521 47.4026C40.7727 48.5528 40.8387 49.6747 40.6501 50.7684C40.4615 51.8243 40.141 52.786 39.6884 53.6534C39.5564 53.8231 39.613 53.9551 39.8581 54.0494L53.0669 59.3385ZM34.5124 55.8878C36.1718 54.2285 37.1146 52.6823 37.3408 51.2492C37.586 49.7973 37.058 48.4208 35.7569 47.1197C34.4936 45.8564 33.1831 45.3001 31.8254 45.451C30.4866 45.5829 29.1101 46.356 27.6959 47.7703L22.7179 52.7483C22.4539 53.0123 22.4256 53.248 22.633 53.4554L29.4212 60.2436C29.6664 60.4888 29.8738 60.5265 30.0435 60.3568L34.5124 55.8878ZM56.4844 56.9958C56.3713 57.1089 56.2487 57.1561 56.1167 57.1372C55.9847 57.0807 55.8622 56.9581 55.749 56.7695L42.9645 29.3338C42.8891 29.1452 42.8608 28.9849 42.8797 28.8529C42.8797 28.7021 42.9645 28.5418 43.1343 28.3721L45.3404 26.1659C45.6798 25.8265 46.0381 25.7511 46.4152 25.9397L73.7378 38.7807C73.8887 38.8562 73.9924 38.9787 74.049 39.1484C74.1055 39.2804 74.0678 39.4124 73.9358 39.5444L71.9276 41.5526C71.7014 41.7789 71.4562 41.8354 71.1923 41.7223L63.7535 38.1868C63.6403 38.149 63.5461 38.1302 63.4706 38.1302C63.3952 38.1302 63.3009 38.1868 63.1878 38.2999L54.9571 46.5306C54.7874 46.7003 54.7497 46.8889 54.8439 47.0963L58.3512 54.6199C58.4078 54.7142 58.4266 54.8273 58.4078 54.9593C58.3889 55.0536 58.3135 55.1667 58.1815 55.2987L56.4844 56.9958ZM60.3028 36.8857C60.5291 36.6594 60.4819 36.4614 60.1614 36.2917L47.4617 30.3803C47.2166 30.286 47.0563 30.2766 46.9809 30.352C46.9243 30.4086 46.9526 30.55 47.0658 30.7763L52.9772 43.5891C53.0903 43.8908 53.2506 43.9379 53.458 43.7305L60.3028 36.8857ZM85.5728 7.93872C85.8179 8.18385 85.7897 8.45726 85.488 8.75896L74.0611 20.2424C73.9291 20.3744 73.8066 20.4404 73.6934 20.4404C73.5803 20.4404 73.4671 20.3838 73.354 20.2707L72.1378 19.0544C71.9115 18.8282 71.8832 18.6302 72.0529 18.4605L83.7909 6.72249C83.9795 6.53393 84.168 6.53393 84.3566 6.72249L85.5728 7.93872ZM84.4697 20.1858C84.2057 20.4498 83.9229 20.4309 83.6212 20.1292L72.1378 8.70239C71.9869 8.55154 71.9209 8.42898 71.9398 8.3347C71.9398 8.22156 71.9964 8.10842 72.1095 7.99529L73.3257 6.77906C73.552 6.55279 73.75 6.5245 73.9197 6.69421L85.686 18.4039C85.8745 18.5925 85.8745 18.781 85.686 18.9696L84.4697 20.1858Z" fill="white"/>
</g>
<defs>
<clipPath id="clip0_9_3">
<rect width="100" height="100" fill="white"/>
</clipPath>
</defs>
</svg>
