<svg width="100" height="100" viewBox="0 0 100 100" fill="none" xmlns="http://www.w3.org/2000/svg">
<g clip-path="url(#clip0_9_11)">
<path d="M38.6859 51.0669C38.6104 51.2555 38.4784 51.3686 38.2899 51.4063C38.1202 51.4629 37.9693 51.4252 37.8373 51.2932L35.7726 49.2284C35.5652 49.021 35.5274 48.757 35.6594 48.4365L40.9203 35.8782C41.0334 35.5765 40.9109 35.2466 40.5526 34.8883L35.7726 30.1082C35.6406 29.9763 35.518 29.9103 35.4049 29.9103C35.3106 29.9291 35.2163 29.9857 35.122 30.08L26.3256 38.8764C26.0239 39.1781 25.7128 39.1686 25.3922 38.8481L23.5538 37.0096C23.4029 36.8588 23.3275 36.7268 23.3275 36.6136C23.3464 36.4816 23.4123 36.3591 23.5255 36.2459L43.7487 16.0227C44.0127 15.7587 44.2579 15.7398 44.4841 15.9661L52.3754 23.8574C54.6005 26.0825 55.8638 28.2698 56.1655 30.4194C56.5049 32.569 55.779 34.5395 53.9876 36.3308C52.9128 37.4056 51.7909 38.1127 50.6218 38.4521C49.4716 38.7727 48.3496 38.8387 47.256 38.6501C46.2 38.4615 45.2384 38.141 44.371 37.6884C44.2013 37.5564 44.0693 37.613 43.975 37.8581L38.6859 51.0669ZM42.1365 32.5124C43.7959 34.1718 45.3421 35.1146 46.7752 35.3408C48.2271 35.586 49.6036 35.058 50.9047 33.7569C52.168 32.4936 52.7243 31.1831 52.5734 29.8254C52.4414 28.4866 51.6683 27.1101 50.2541 25.6959L45.2761 20.7179C45.0121 20.4539 44.7764 20.4256 44.569 20.633L37.7808 27.4212C37.5356 27.6664 37.4979 27.8738 37.6676 28.0435L42.1365 32.5124ZM41.0286 54.4844C40.9154 54.3713 40.8683 54.2487 40.8872 54.1167C40.9437 53.9847 41.0663 53.8622 41.2549 53.749L68.6906 40.9645C68.8792 40.8891 69.0394 40.8608 69.1714 40.8797C69.3223 40.8797 69.4826 40.9645 69.6523 41.1343L71.8584 43.3404C72.1979 43.6798 72.2733 44.0381 72.0847 44.4152L59.2437 71.7378C59.1682 71.8887 59.0457 71.9924 58.876 72.049C58.744 72.1055 58.612 72.0678 58.48 71.9358L56.4718 69.9276C56.2455 69.7014 56.189 69.4562 56.3021 69.1923L59.8376 61.7535C59.8753 61.6403 59.8942 61.5461 59.8942 61.4706C59.8942 61.3952 59.8376 61.3009 59.7245 61.1878L51.4938 52.9571C51.3241 52.7874 51.1355 52.7497 50.9281 52.8439L43.4045 56.3512C43.3102 56.4078 43.197 56.4266 43.0651 56.4078C42.9708 56.3889 42.8576 56.3135 42.7256 56.1815L41.0286 54.4844ZM61.1387 58.3028C61.365 58.5291 61.563 58.4819 61.7327 58.1614L67.6441 45.4617C67.7384 45.2166 67.7478 45.0563 67.6724 44.9809C67.6158 44.9243 67.4744 44.9526 67.2481 45.0658L54.4353 50.9772C54.1336 51.0903 54.0865 51.2506 54.2939 51.458L61.1387 58.3028ZM82.0246 81.6212C81.7607 81.8852 81.4684 81.8569 81.1478 81.5363L74.7273 75.1158C74.5953 74.9838 74.5199 74.8707 74.501 74.7764C74.501 74.6633 74.567 74.5407 74.699 74.4087L75.9435 73.1642C76.1509 72.9568 76.3395 72.9379 76.5092 73.1076L83.2692 79.811C83.4577 79.9996 83.4577 80.1881 83.2692 80.3767L82.0246 81.6212Z" fill="white"/>
</g>
<defs>
<clipPath id="clip0_9_11">
<rect width="100" height="100" fill="white" transform="matrix(0 1 -1 0 100 0)"/>
</clipPath>
</defs>
</svg>
