<svg width="39" height="40" viewBox="0 0 39 40" fill="none" xmlns="http://www.w3.org/2000/svg">
<path d="M38.4951 14.5051V6.25242C38.4951 3.21488 36.0326 0.752441 32.9951 0.752441H5.49998C2.46244 0.752441 0 3.21488 0 6.25242V33.7475C0 36.7851 2.46244 39.2475 5.49998 39.2475H32.9951C36.0326 39.2475 38.4951 36.7851 38.4951 33.7475V14.5051ZM3.55458 4.30702C3.80985 4.05044 4.11344 3.847 4.44781 3.70845C4.78217 3.56991 5.14069 3.49902 5.50262 3.49987H33.0025C33.3637 3.5003 33.7213 3.57193 34.0549 3.71066C34.3884 3.8494 34.6913 4.05252 34.9462 4.30841C35.2012 4.5643 35.4032 4.86794 35.5407 5.20196C35.6782 5.53599 35.7485 5.89384 35.7476 6.25506V11.7577H2.74743V6.25506C2.74657 5.89313 2.81747 5.53462 2.95601 5.20025C3.09455 4.86588 3.298 4.56229 3.55458 4.30702ZM15.1186 24.1289V14.5051H23.3764V24.1289H15.1186ZM23.3764 26.8763V36.5001H15.1186V26.8763H23.3764ZM12.3712 24.1289H2.74743V14.5051H12.3712V24.1289ZM3.55458 35.6976C3.29813 35.4433 3.09472 35.1407 2.95616 34.8072C2.8176 34.4737 2.74665 34.1161 2.74743 33.755V26.8763H12.3712V36.5001H5.50262C5.14097 36.5018 4.78258 36.4318 4.44819 36.294C4.11381 36.1563 3.81007 35.9535 3.55458 35.6976ZM35.7476 33.755C35.7483 34.1157 35.6778 34.4729 35.5401 34.8063C35.4024 35.1397 35.2002 35.4425 34.9452 35.6976C34.6901 35.9526 34.3872 36.1548 34.0538 36.2925C33.7205 36.4302 33.3632 36.5008 33.0025 36.5001H26.1239V26.8763H35.7476V33.755ZM35.7476 24.1289H26.1239V14.5051H35.7476V24.1289Z" fill="white"/>
</svg>
