<svg width="60" height="60" viewBox="0 0 60 60" fill="none" xmlns="http://www.w3.org/2000/svg">
<path d="M30 49.1666C40.5855 49.1666 49.1667 40.5854 49.1667 30C49.1667 19.4145 40.5855 10.8333 30 10.8333C19.4146 10.8333 10.8334 19.4145 10.8334 30C10.8334 40.5854 19.4146 49.1666 30 49.1666Z" stroke="white" stroke-width="2" stroke-linecap="round" stroke-linejoin="round"/>
<path d="M34.4275 22.3333L45.4292 41.385" stroke="white" stroke-width="2" stroke-linecap="round" stroke-linejoin="round"/>
<path d="M25.5725 22.3333H47.5758" stroke="white" stroke-width="2" stroke-linecap="round" stroke-linejoin="round"/>
<path d="M21.145 30L32.1467 10.9483" stroke="white" stroke-width="2" stroke-linecap="round" stroke-linejoin="round"/>
<path d="M25.5725 37.6667L14.5708 18.615" stroke="white" stroke-width="2" stroke-linecap="round" stroke-linejoin="round"/>
<path d="M34.4275 37.6667H12.4242" stroke="white" stroke-width="2" stroke-linecap="round" stroke-linejoin="round"/>
<path d="M38.8549 30L27.8533 49.0517" stroke="white" stroke-width="2" stroke-linecap="round" stroke-linejoin="round"/>
<path d="M26.2811 33.0781C25.992 33.0781 25.7277 33.0052 25.4881 32.8594C25.2511 32.7135 25.0623 32.5182 24.9217 32.2734C24.7837 32.026 24.7147 31.7513 24.7147 31.4492L24.7225 28.9531C24.7225 28.6562 24.7902 28.388 24.9256 28.1484C25.061 27.9062 25.2472 27.7122 25.4842 27.5664C25.7238 27.418 25.9894 27.3438 26.2811 27.3438C26.578 27.3438 26.8423 27.4154 27.0741 27.5586C27.3084 27.7018 27.4946 27.8958 27.6327 28.1406C27.7733 28.3828 27.8436 28.6536 27.8436 28.9531V29.3203C27.8436 29.3411 27.8332 29.3516 27.8123 29.3516H26.9139C26.8931 29.3516 26.8827 29.3411 26.8827 29.3203V28.9531C26.8827 28.776 26.8254 28.6237 26.7108 28.4961C26.5962 28.3685 26.453 28.3047 26.2811 28.3047C26.091 28.3047 25.9452 28.3698 25.8436 28.5C25.742 28.6302 25.6912 28.7812 25.6912 28.9531V31.4492C25.6912 31.6445 25.7485 31.8047 25.8631 31.9297C25.9777 32.0521 26.117 32.1133 26.2811 32.1133C26.453 32.1133 26.5962 32.0456 26.7108 31.9102C26.8254 31.7721 26.8827 31.6185 26.8827 31.4492V31.0781C26.8827 31.0573 26.8931 31.0469 26.9139 31.0469H27.8202C27.841 31.0469 27.8514 31.0573 27.8514 31.0781V31.4492C27.8514 31.7487 27.7811 32.0221 27.6405 32.2695C27.4972 32.5143 27.3084 32.7109 27.0741 32.8594C26.8397 33.0052 26.5754 33.0781 26.2811 33.0781ZM28.0039 32.9609L28.9961 27.4648C29.0013 27.444 29.0143 27.4336 29.0352 27.4336H30.1953C30.2161 27.4336 30.2292 27.444 30.2344 27.4648L31.1875 32.9609C31.1901 32.987 31.1797 33 31.1562 33H30.2695C30.2435 33 30.2292 32.987 30.2266 32.9609L30.1406 32.375H29.0508L28.9648 32.9609C28.9622 32.987 28.9492 33 28.9258 33H28.0352C28.0143 33 28.0039 32.987 28.0039 32.9609ZM29.5703 29.2734L29.2109 31.5195H29.9805L29.6523 29.2734L29.6055 28.9766L29.5703 29.2734ZM32.465 33H31.5587C31.5379 33 31.5275 32.987 31.5275 32.9609L31.5431 27.4648C31.5431 27.444 31.5535 27.4336 31.5744 27.4336H32.5509C32.5718 27.4336 32.59 27.444 32.6056 27.4648L33.3361 28.5195L34.0627 27.4648C34.0783 27.444 34.0978 27.4336 34.1212 27.4336H35.1017C35.1252 27.4336 35.1369 27.444 35.1369 27.4648L35.1525 32.9609C35.1525 32.987 35.1421 33 35.1212 33H34.215C34.1942 33 34.1837 32.987 34.1837 32.9609L34.1759 28.8789L33.3361 30.0977L32.5041 28.8789L32.4962 32.9609C32.4962 32.987 32.4858 33 32.465 33Z" fill="white"/>
</svg>
