<svg width="60" height="60" viewBox="0 0 60 60" fill="none" xmlns="http://www.w3.org/2000/svg">
<g clip-path="url(#clip0_11_960)">
<path d="M30.1173 19.9445C24.6764 19.9445 20.2828 24.338 20.2828 29.7789C20.2828 35.2198 24.6764 39.6134 30.1173 39.6134C33.438 39.6134 36.5544 37.9275 38.368 35.1432C38.4702 35.1432 38.5468 35.1687 38.649 35.1687C40.0539 35.2198 41.2289 34.0959 41.28 32.6909C41.3056 31.7458 40.7947 30.8518 39.9517 30.392C39.9517 30.1876 39.9773 30.0088 39.9773 29.8045C39.9517 24.338 35.5582 19.9445 30.1173 19.9445ZM30.1173 38.0807C25.5449 38.0807 21.8155 34.3513 21.8155 29.7789C21.8155 25.2065 25.5449 21.4771 30.1173 21.4771C34.6897 21.4771 38.4191 25.2065 38.4191 29.7789V30.0344C37.0908 30.1365 36.069 31.2605 36.0435 32.5888C36.0435 33.3295 36.3756 34.0448 36.9375 34.5301C35.3794 36.7524 32.825 38.0807 30.1173 38.0807Z" fill="white"/>
<path d="M13.1306 13.5074C13.5138 13.6351 13.8714 13.8139 14.2035 14.0693C14.4589 14.3759 14.6633 14.759 14.791 15.1422C14.8676 15.3465 15.0975 15.4232 15.3019 15.3465C15.404 15.2954 15.4551 15.2444 15.5062 15.1422C15.6339 14.7846 15.8127 14.4525 16.0426 14.146C16.4003 13.865 16.7834 13.6606 17.2177 13.5329C17.3965 13.4818 17.4987 13.2775 17.4476 13.0731C17.422 12.9709 17.3198 12.8943 17.2177 12.8432C16.809 12.7155 16.4258 12.5367 16.0682 12.2812C15.8127 11.9747 15.6339 11.6426 15.5062 11.2595C15.4296 11.0551 15.1997 10.9785 14.9953 11.0551C14.9187 11.1062 14.8421 11.1829 14.791 11.2595C14.6633 11.6426 14.4589 11.9747 14.2035 12.2812C13.8969 12.5367 13.5138 12.7155 13.1306 12.8432C12.9518 12.8943 12.8496 13.0987 12.9007 13.303C12.9518 13.4052 13.0284 13.4818 13.1306 13.5074ZM52.6728 37.391C52.0853 37.1867 51.4722 36.9057 51.1912 36.6503C50.8592 36.2671 50.6293 35.8073 50.476 35.322C50.3738 35.0665 50.0928 34.9643 49.8374 35.0665C49.7097 35.1176 49.633 35.2198 49.582 35.322C49.4287 35.8073 49.1733 36.2671 48.8412 36.6758C48.5857 36.9312 47.9982 37.1867 47.4363 37.391C47.2064 37.4677 47.0786 37.7486 47.1553 37.9785C47.2064 38.1063 47.3085 38.2084 47.4363 38.2595C47.9471 38.4128 48.4069 38.6427 48.8156 38.9748C49.1477 39.3835 49.4032 39.8433 49.582 40.3541C49.6841 40.6096 49.9651 40.7118 50.2206 40.6096C50.3483 40.5585 50.4249 40.4563 50.476 40.3541C50.6293 39.8943 50.8592 39.4601 51.1657 39.0769C51.4467 38.796 52.0853 38.515 52.6728 38.3106C52.9282 38.2595 53.0815 38.0041 53.0049 37.7486C52.9793 37.5698 52.8516 37.4421 52.6728 37.391ZM44.0134 19.3569C44.371 19.4591 44.6775 19.6124 44.984 19.8423C45.2139 20.1233 45.3927 20.4298 45.5205 20.7874C45.5971 20.9662 45.8014 21.0428 45.9802 20.9662C46.0569 20.9407 46.108 20.864 46.1591 20.7874C46.2612 20.4809 46.4145 20.1744 46.6444 19.9189C46.9765 19.689 47.3085 19.5102 47.6917 19.3825C47.845 19.3314 47.9471 19.1526 47.8961 18.9993C47.8705 18.8972 47.7939 18.8205 47.6917 18.795C47.3341 18.6928 46.9765 18.514 46.6699 18.2841C46.44 18.0287 46.2612 17.6966 46.1591 17.3901C46.0824 17.2112 45.8781 17.1346 45.6993 17.2112C45.6226 17.2368 45.5715 17.3134 45.5205 17.3901C45.4183 17.7221 45.2395 18.0287 45.0096 18.3096C44.703 18.5395 44.371 18.6928 44.0134 18.795C43.8601 18.8461 43.7579 19.0249 43.8346 19.2037C43.8346 19.2548 43.9112 19.3314 44.0134 19.3569ZM16.7579 40.4819C16.4003 40.3797 16.0426 40.2009 15.7361 39.971C15.5062 39.7155 15.3274 39.3835 15.2252 39.0514C15.1486 38.8726 14.9443 38.796 14.7654 38.8726C14.6888 38.8981 14.6122 38.9748 14.5866 39.0514C14.4845 39.3835 14.3057 39.69 14.0758 39.971C13.7692 40.2009 13.4372 40.3541 13.0795 40.4563C12.9263 40.5074 12.8241 40.6862 12.8752 40.8395C12.9007 40.9416 12.9774 41.0183 13.0795 41.0438C13.4372 41.146 13.7437 41.2993 14.0502 41.5292C14.2801 41.8101 14.4589 42.1167 14.5866 42.4743C14.6633 42.6531 14.8676 42.7297 15.0209 42.6531C15.0975 42.6276 15.1741 42.5509 15.1997 42.4743C15.3019 42.1422 15.4551 41.8612 15.685 41.6058C15.9916 41.3759 16.3492 41.1971 16.7323 41.0694C16.8856 41.0183 16.9878 40.8395 16.9367 40.6862C16.9111 40.584 16.8345 40.5074 16.7579 40.4819ZM12.8752 28.374C12.8752 28.655 13.1051 28.8849 13.3861 28.8849C13.6671 28.8849 13.8969 28.655 13.8969 28.374C13.8969 28.093 13.6671 27.8631 13.3861 27.8631C13.1051 27.8631 12.8752 28.093 12.8752 28.374ZM10.3208 43.9558C9.75881 43.9558 9.29902 44.4156 9.29902 44.9776C9.29902 45.5396 9.75881 45.9994 10.3208 45.9994C10.8828 45.9994 11.3425 45.5396 11.3425 44.9776C11.3425 44.4156 10.8828 43.9558 10.3208 43.9558ZM50.6804 24.2869C51.1146 24.2869 51.4467 23.9549 51.4467 23.5206C51.4467 23.0864 51.1146 22.7543 50.6804 22.7543C50.2461 22.7543 49.914 23.0864 49.914 23.5206C49.914 23.9549 50.2461 24.2869 50.6804 24.2869ZM42.1231 44.2113C41.7655 44.2113 41.4845 44.4923 41.4845 44.8499C41.4845 45.2075 41.7655 45.4885 42.1231 45.4885C42.4807 45.4885 42.7617 45.2075 42.7617 44.8499C42.7617 44.4923 42.4807 44.2113 42.1231 44.2113ZM39.9263 13.2008C40.2839 13.303 40.5905 13.4563 40.897 13.6862C41.1269 13.9672 41.3057 14.2737 41.4334 14.6313C41.51 14.8101 41.7144 14.8867 41.8932 14.8101C41.9698 14.7846 42.0209 14.7079 42.072 14.6313C42.1742 14.2992 42.3275 14.0182 42.5573 13.7628C42.8639 13.5329 43.2215 13.3541 43.6047 13.2264C43.7579 13.1753 43.8601 12.9965 43.809 12.8432C43.7835 12.741 43.7068 12.6644 43.6047 12.6389C43.247 12.5367 42.8894 12.3579 42.5829 12.128C42.353 11.847 42.1742 11.5405 42.072 11.2084C41.9954 11.0296 41.791 10.953 41.6122 11.0296C41.5356 11.0551 41.4845 11.1318 41.4334 11.2084C41.3312 11.5405 41.1524 11.847 40.9225 12.128C40.616 12.3579 40.2839 12.5111 39.9263 12.6133C39.773 12.6644 39.6709 12.8432 39.722 12.9965C39.7475 13.0987 39.8241 13.1753 39.9263 13.2008ZM23.3482 45.4885C22.914 45.4885 22.5819 45.8206 22.5819 46.2548C22.5819 46.6891 22.914 47.0211 23.3482 47.0211C23.7825 47.0211 24.1146 46.6891 24.1146 46.2548C24.1146 45.8206 23.7825 45.4885 23.3482 45.4885ZM14.4078 23.2652C14.1268 23.2652 13.8969 23.4951 13.8969 23.7761C13.8969 24.057 14.1268 24.2869 14.4078 24.2869C14.6888 24.2869 14.9187 24.057 14.9187 23.7761C14.9187 23.4951 14.6888 23.2652 14.4078 23.2652ZM32.5441 12.7921C32.9783 12.7921 33.3104 12.4601 33.3104 12.0258C33.3104 11.5916 32.9783 11.2595 32.5441 11.2595C32.1098 11.2595 31.7778 11.5916 31.7778 12.0258C31.7778 12.4601 32.1098 12.7921 32.5441 12.7921ZM47.8961 47.8896C47.5384 47.7875 47.1808 47.6086 46.8743 47.3787C46.6444 47.1233 46.4656 46.7912 46.3634 46.4592C46.2868 46.2804 46.0824 46.2037 45.9036 46.2804C45.827 46.3059 45.7759 46.3825 45.7248 46.4592C45.6226 46.7912 45.4438 47.0978 45.2139 47.3787C44.9074 47.6086 44.5753 47.7619 44.2177 47.8641C44.0644 47.9152 43.9623 48.094 44.0134 48.2472C44.0389 48.3494 44.1155 48.4261 44.2177 48.4516C44.5753 48.5538 44.8819 48.707 45.1884 48.9369C45.4183 49.2179 45.5971 49.5244 45.7248 49.8821C45.8014 50.0609 46.0058 50.1375 46.1846 50.0609C46.2612 50.0353 46.3123 49.9587 46.3634 49.8821C46.4656 49.5755 46.6444 49.269 46.8487 49.0136C47.1808 48.7837 47.5129 48.6049 47.8961 48.4771C48.0493 48.4261 48.1515 48.2472 48.1004 48.094C48.1004 47.9918 48.0238 47.9152 47.8961 47.8896ZM11.3425 32.7676C10.9338 32.6398 10.5507 32.461 10.1931 32.2056C9.93762 31.8991 9.75881 31.567 9.63109 31.1838C9.55446 30.9795 9.32456 30.9028 9.12021 30.9795C9.04358 31.0306 8.96695 31.1072 8.91586 31.1838C8.78814 31.567 8.58379 31.8991 8.32835 32.2056C8.02182 32.461 7.63866 32.6398 7.2555 32.7676C7.07669 32.8186 6.97451 33.023 7.0256 33.2274C7.05115 33.3295 7.15332 33.4062 7.2555 33.4572C7.63866 33.5594 7.99628 33.7382 8.32835 33.9937C8.58379 34.3002 8.78814 34.6834 8.91586 35.0665C8.99249 35.2709 9.22239 35.3475 9.42674 35.2709C9.52892 35.2198 9.58001 35.1687 9.63109 35.0665C9.75881 34.7089 9.93762 34.3768 10.1675 34.0703C10.5251 33.7893 10.9083 33.585 11.3425 33.4572C11.5214 33.4062 11.6235 33.2018 11.5724 32.9975C11.5214 32.8953 11.4447 32.8186 11.3425 32.7676ZM26.9244 24.7978C27.3587 24.7978 27.6907 24.4657 27.6907 24.0315C27.6907 23.5973 27.3587 23.2652 26.9244 23.2652C26.4902 23.2652 26.1581 23.5973 26.1581 24.0315C26.1581 24.4657 26.4902 24.7978 26.9244 24.7978Z" fill="white"/>
<path d="M45.8269 29.7789C45.8269 25.4109 43.9622 21.2472 40.6926 18.3096C40.2583 17.9265 39.6197 17.9776 39.2366 18.3863C38.8534 18.8205 38.9045 19.4591 39.3132 19.8423C44.8052 24.7723 45.2905 33.2018 40.3605 38.7193C38.4702 40.8395 35.9669 42.2955 33.2082 42.883C32.5696 41.1971 30.6538 40.3286 28.9679 40.9672C28.0994 41.2993 27.4097 41.9634 27.0776 42.8319C21.0237 41.4014 16.7323 36.0116 16.7067 29.7789C16.7067 26.3049 18.0606 22.9842 20.4872 20.4809C22.0965 21.2983 24.089 20.6597 24.9064 19.0504C25.1363 18.5906 25.264 18.1053 25.264 17.5944V17.339C26.8477 16.7004 28.5336 16.3683 30.2451 16.3683C30.807 16.3683 31.2668 15.9085 31.2668 15.3465C31.2668 14.7846 30.807 14.3248 30.2451 14.3248C28.2526 14.3248 26.2857 14.7079 24.4466 15.4487C23.246 14.0949 21.1769 13.9672 19.7976 15.1422C19.1079 15.7552 18.6992 16.6493 18.6736 17.5944C18.6736 18.1053 18.8013 18.5906 19.0312 19.0504C16.2469 21.9113 14.6632 25.7685 14.6632 29.7789C14.6632 37.1867 19.9508 43.3939 26.9754 44.901C27.4608 46.638 29.2999 47.6597 31.0369 47.1744C32.1098 46.8679 32.9783 46.0249 33.2848 44.9521C40.4371 43.5216 45.8269 37.2633 45.8269 29.7789Z" fill="white"/>
<path d="M32.2375 15.4487C32.1353 16.0107 32.4674 16.5471 33.0294 16.6493C34.2555 16.9047 35.4305 17.339 36.5544 17.9009C36.7077 17.9776 36.861 18.0287 37.0142 18.0287C37.5762 18.0287 38.036 17.5689 38.0104 16.9813C38.0104 16.6237 37.8061 16.2661 37.474 16.0873C36.1968 15.4232 34.843 14.9378 33.4381 14.6568C32.9016 14.5547 32.3652 14.9123 32.2375 15.4487Z" fill="white"/>
<path d="M22.2614 32.7609L23.2536 27.2648C23.2588 27.244 23.2718 27.2336 23.2927 27.2336H24.4528C24.4736 27.2336 24.4867 27.244 24.4919 27.2648L25.445 32.7609C25.4476 32.787 25.4372 32.8 25.4138 32.8H24.527C24.501 32.8 24.4867 32.787 24.4841 32.7609L24.3981 32.175H23.3083L23.2223 32.7609C23.2197 32.787 23.2067 32.8 23.1833 32.8H22.2927C22.2718 32.8 22.2614 32.787 22.2614 32.7609ZM23.8278 29.0734L23.4684 31.3195H24.238L23.9098 29.0734L23.863 28.7766L23.8278 29.0734ZM27.0077 32.8H26.1053C26.0819 32.8 26.0702 32.787 26.0702 32.7609V28.1984H25.0311C25.0051 28.1984 24.992 28.1854 24.992 28.1594L24.9998 27.2648C24.9998 27.244 25.0103 27.2336 25.0311 27.2336H28.0702C28.0988 27.2336 28.1131 27.244 28.1131 27.2648V28.1594C28.1131 28.1854 28.1027 28.1984 28.0819 28.1984H27.0311L27.0389 32.7609C27.0389 32.787 27.0285 32.8 27.0077 32.8ZM30.9609 32.8H28.375C28.3542 32.8 28.3438 32.787 28.3438 32.7609L28.3516 27.2726C28.3516 27.2466 28.3646 27.2336 28.3906 27.2336H29.2812C29.3073 27.2336 29.3203 27.2466 29.3203 27.2726L29.3125 31.8156H30.9609C30.987 31.8156 31 31.8286 31 31.8547V32.7609C31 32.787 30.987 32.8 30.9609 32.8ZM31.0939 32.7609L32.0861 27.2648C32.0913 27.244 32.1043 27.2336 32.1252 27.2336H33.2853C33.3061 27.2336 33.3192 27.244 33.3244 27.2648L34.2775 32.7609C34.2801 32.787 34.2697 32.8 34.2463 32.8H33.3595C33.3335 32.8 33.3192 32.787 33.3166 32.7609L33.2306 32.175H32.1408L32.0548 32.7609C32.0522 32.787 32.0392 32.8 32.0158 32.8H31.1252C31.1043 32.8 31.0939 32.787 31.0939 32.7609ZM32.6603 29.0734L32.3009 31.3195H33.0705L32.7423 29.0734L32.6955 28.7766L32.6603 29.0734ZM35.9769 32.8781C35.693 32.8781 35.4313 32.8052 35.1917 32.6594C34.9547 32.5135 34.7646 32.3195 34.6214 32.0773C34.4808 31.8325 34.4105 31.5643 34.4105 31.2726V30.9055C34.4105 30.8768 34.4235 30.8625 34.4495 30.8625H35.348C35.3688 30.8625 35.3792 30.8768 35.3792 30.9055V31.2726C35.3792 31.4471 35.4378 31.5982 35.555 31.7258C35.6722 31.8508 35.8128 31.9133 35.9769 31.9133C36.1435 31.9133 36.2855 31.8495 36.4027 31.7219C36.5198 31.5917 36.5784 31.4419 36.5784 31.2726C36.5784 31.0773 36.4508 30.9068 36.1956 30.7609C36.154 30.7349 36.0993 30.7036 36.0316 30.6672C35.9665 30.6281 35.8883 30.5838 35.7972 30.5344C35.706 30.4849 35.6175 30.4367 35.5316 30.3898C35.4456 30.3404 35.3623 30.2935 35.2816 30.2492C34.9899 30.0773 34.7724 29.8625 34.6292 29.6047C34.4886 29.3443 34.4183 29.0526 34.4183 28.7297C34.4183 28.4328 34.4912 28.1646 34.637 27.925C34.7829 27.688 34.973 27.5005 35.2073 27.3625C35.4443 27.2219 35.7008 27.1516 35.9769 27.1516C36.2607 27.1516 36.5211 27.2219 36.7581 27.3625C36.9951 27.5057 37.1839 27.6958 37.3245 27.9328C37.4678 28.1698 37.5394 28.4354 37.5394 28.7297V29.3859C37.5394 29.4068 37.529 29.4172 37.5081 29.4172H36.6097C36.5889 29.4172 36.5784 29.4068 36.5784 29.3859L36.5706 28.7297C36.5706 28.5422 36.512 28.3898 36.3948 28.2726C36.2777 28.1555 36.1383 28.0969 35.9769 28.0969C35.8128 28.0969 35.6722 28.1594 35.555 28.2844C35.4378 28.4094 35.3792 28.5578 35.3792 28.7297C35.3792 28.9042 35.4157 29.05 35.4886 29.1672C35.5641 29.2844 35.7008 29.3963 35.8988 29.5031C35.9196 29.5135 35.9678 29.5396 36.0433 29.5812C36.1188 29.6229 36.2021 29.6698 36.2933 29.7219C36.387 29.7713 36.4717 29.8169 36.5472 29.8586C36.6227 29.8976 36.6683 29.9211 36.6839 29.9289C36.9495 30.0773 37.1592 30.2596 37.3128 30.4758C37.4691 30.6919 37.5472 30.9575 37.5472 31.2726C37.5472 31.5773 37.4769 31.8508 37.3363 32.093C37.193 32.3351 37.0029 32.5266 36.7659 32.6672C36.529 32.8078 36.2659 32.8781 35.9769 32.8781Z" fill="white"/>
</g>
<defs>
<clipPath id="clip0_11_960">
<rect width="46" height="39.0905" fill="white" transform="translate(7 11)"/>
</clipPath>
</defs>
</svg>
