<svg width="21" height="27" viewBox="0 0 21 27" fill="none" xmlns="http://www.w3.org/2000/svg">
<path d="M2.53516 12.0977C2.18034 12.0977 1.85319 12.0065 1.55371 11.8242C1.25749 11.6419 1.01986 11.3994 0.84082 11.0967C0.665039 10.7907 0.577148 10.4554 0.577148 10.0908V9.63184C0.577148 9.59603 0.593424 9.57812 0.625977 9.57812H1.74902C1.77507 9.57812 1.78809 9.59603 1.78809 9.63184V10.0908C1.78809 10.3089 1.86133 10.4977 2.00781 10.6572C2.1543 10.8135 2.33008 10.8916 2.53516 10.8916C2.74349 10.8916 2.9209 10.8118 3.06738 10.6523C3.21387 10.4896 3.28711 10.3024 3.28711 10.0908C3.28711 9.84668 3.1276 9.63346 2.80859 9.45117C2.75651 9.41862 2.68815 9.37956 2.60352 9.33398C2.52214 9.28516 2.42448 9.22982 2.31055 9.16797C2.19661 9.10612 2.08594 9.0459 1.97852 8.9873C1.87109 8.92546 1.76693 8.86686 1.66602 8.81152C1.30143 8.59668 1.02962 8.32812 0.850586 8.00586C0.674805 7.68034 0.586914 7.31576 0.586914 6.91211C0.586914 6.54102 0.67806 6.20573 0.860352 5.90625C1.04264 5.61003 1.28027 5.37565 1.57324 5.20312C1.86947 5.02734 2.1901 4.93945 2.53516 4.93945C2.88997 4.93945 3.21549 5.02734 3.51172 5.20312C3.80794 5.38216 4.04395 5.61979 4.21973 5.91602C4.39876 6.21224 4.48828 6.54427 4.48828 6.91211V7.73242C4.48828 7.75846 4.47526 7.77148 4.44922 7.77148H3.32617C3.30013 7.77148 3.28711 7.75846 3.28711 7.73242L3.27734 6.91211C3.27734 6.67773 3.2041 6.4873 3.05762 6.34082C2.91113 6.19434 2.73698 6.12109 2.53516 6.12109C2.33008 6.12109 2.1543 6.19922 2.00781 6.35547C1.86133 6.51172 1.78809 6.69727 1.78809 6.91211C1.78809 7.13021 1.83366 7.3125 1.9248 7.45898C2.01921 7.60547 2.1901 7.74544 2.4375 7.87891C2.46354 7.89193 2.52376 7.92448 2.61816 7.97656C2.71257 8.02865 2.81673 8.08724 2.93066 8.15234C3.04785 8.21419 3.15365 8.27116 3.24805 8.32324C3.34245 8.37207 3.39941 8.40137 3.41895 8.41113C3.75098 8.59668 4.01302 8.82454 4.20508 9.09473C4.40039 9.36491 4.49805 9.69694 4.49805 10.0908C4.49805 10.4717 4.41016 10.8135 4.23438 11.1162C4.05534 11.4189 3.81771 11.6582 3.52148 11.834C3.22526 12.0098 2.89648 12.0977 2.53516 12.0977ZM5.86328 12H4.74023C4.70768 12 4.69141 11.9837 4.69141 11.9512L4.71094 5.08105C4.71094 5.05501 4.72396 5.04199 4.75 5.04199H6.67383C7.28581 5.04199 7.76921 5.22917 8.12402 5.60352C8.4821 5.97461 8.66113 6.48079 8.66113 7.12207C8.66113 7.59082 8.56836 7.99935 8.38281 8.34766C8.19401 8.69271 7.94987 8.95964 7.65039 9.14844C7.35091 9.33724 7.02539 9.43164 6.67383 9.43164H5.91211V11.9512C5.91211 11.9837 5.89583 12 5.86328 12ZM6.67383 6.22852L5.91211 6.23828V8.2207H6.67383C6.88542 8.2207 7.06934 8.11979 7.22559 7.91797C7.38184 7.71289 7.45996 7.44759 7.45996 7.12207C7.45996 6.86165 7.38997 6.64844 7.25 6.48242C7.11003 6.31315 6.91797 6.22852 6.67383 6.22852ZM12.1113 12H8.87891C8.85286 12 8.83984 11.9837 8.83984 11.9512L8.84961 5.08105C8.84961 5.05501 8.86263 5.04199 8.88867 5.04199H12.1016C12.1276 5.04199 12.1406 5.05827 12.1406 5.09082V6.20898C12.1406 6.23503 12.1276 6.24805 12.1016 6.24805H10.0508V7.81055H12.1016C12.1276 7.81055 12.1406 7.82357 12.1406 7.84961L12.1504 8.98242C12.1504 9.00846 12.1374 9.02148 12.1113 9.02148H10.0508V10.7695H12.1113C12.1374 10.7695 12.1504 10.7858 12.1504 10.8184V11.9609C12.1504 11.987 12.1374 12 12.1113 12ZM15.8105 12H12.5781C12.5521 12 12.5391 11.9837 12.5391 11.9512L12.5488 5.08105C12.5488 5.05501 12.5618 5.04199 12.5879 5.04199H15.8008C15.8268 5.04199 15.8398 5.05827 15.8398 5.09082V6.20898C15.8398 6.23503 15.8268 6.24805 15.8008 6.24805H13.75V7.81055H15.8008C15.8268 7.81055 15.8398 7.82357 15.8398 7.84961L15.8496 8.98242C15.8496 9.00846 15.8366 9.02148 15.8105 9.02148H13.75V10.7695H15.8105C15.8366 10.7695 15.8496 10.7858 15.8496 10.8184V11.9609C15.8496 11.987 15.8366 12 15.8105 12ZM18.0791 11.9902L16.2871 12C16.2546 12 16.2383 11.9837 16.2383 11.9512L16.2578 5.08105C16.2578 5.05501 16.2708 5.04199 16.2969 5.04199L18.167 5.03223C18.5381 5.02246 18.8734 5.1071 19.1729 5.28613C19.4756 5.46517 19.7165 5.70768 19.8955 6.01367C20.0778 6.31641 20.1689 6.65169 20.1689 7.01953V9.89062C20.1689 10.2747 20.0762 10.6263 19.8906 10.9453C19.7018 11.2611 19.4512 11.5133 19.1387 11.7021C18.8262 11.8877 18.473 11.9837 18.0791 11.9902ZM18.167 6.22852L17.4688 6.23828L17.459 10.7695H18.0791C18.3265 10.7695 18.5348 10.6833 18.7041 10.5107C18.8734 10.3382 18.958 10.1315 18.958 9.89062V7.00977C18.958 6.79818 18.8799 6.61426 18.7236 6.45801C18.5674 6.2985 18.3818 6.22201 18.167 6.22852Z" fill="white"/>
<path d="M8.99504 14.18H9.01504C9.26171 14.18 9.38504 14.3167 9.38504 14.59V18.52H9.90504C10.1717 18.52 10.305 18.6467 10.305 18.9C10.305 19.1467 10.1717 19.27 9.90504 19.27H9.38504V20.63C9.38504 20.7633 9.35171 20.86 9.28504 20.92C9.22504 20.9733 9.11837 21 8.96504 21H8.90504C8.75837 21 8.65504 20.9733 8.59504 20.92C8.54171 20.86 8.51504 20.7633 8.51504 20.63V19.27H5.27504C5.03504 19.27 4.91504 19.17 4.91504 18.97C4.91504 18.8367 4.96504 18.7033 5.06504 18.57C5.85837 17.5767 6.89504 16.33 8.17504 14.83C8.20171 14.7833 8.24837 14.7233 8.31504 14.65L8.48504 14.46C8.65171 14.2733 8.82171 14.18 8.99504 14.18ZM8.51504 18.52V15.5C8.30171 15.7533 7.90171 16.2333 7.31504 16.94C6.72837 17.64 6.28504 18.1667 5.98504 18.52H8.51504ZM11.1318 16.07H11.4418C11.6084 16.07 11.7451 16.15 11.8518 16.31L12.9818 18.04C13.2684 17.6867 13.6518 17.11 14.1318 16.31C14.2318 16.15 14.3618 16.07 14.5218 16.07H14.7018C14.8951 16.07 14.9918 16.1467 14.9918 16.3C14.9918 16.3533 14.9784 16.4033 14.9518 16.45C14.5718 17.0967 14.0651 17.79 13.4318 18.53L15.0018 20.62C15.0551 20.6933 15.0818 20.76 15.0818 20.82C15.0818 20.94 15.0118 21 14.8718 21H14.4818C14.3151 21 14.1651 20.9067 14.0318 20.72L12.9018 19.09C12.7951 19.1967 12.6718 19.3533 12.5318 19.56C12.3918 19.7667 12.2884 19.9167 12.2218 20.01C12.0218 20.31 11.8618 20.56 11.7418 20.76C11.6351 20.92 11.4984 21 11.3318 21H11.1518C11.0718 21 11.0051 20.9733 10.9518 20.92C10.8984 20.8667 10.8718 20.81 10.8718 20.75C10.8718 20.6833 10.8918 20.62 10.9318 20.56C11.3851 19.8933 11.9018 19.2367 12.4818 18.59L10.9218 16.45C10.8818 16.4033 10.8618 16.35 10.8618 16.29C10.8618 16.23 10.8851 16.18 10.9318 16.14C10.9851 16.0933 11.0518 16.07 11.1318 16.07Z" fill="white"/>
</svg>
