<svg width="16" height="16" viewBox="0 0 16 16" fill="none" xmlns="http://www.w3.org/2000/svg">
<g clip-path="url(#clip0_14_692)">
<path d="M1.5 1C1.5 0.723858 1.27614 0.5 1 0.5C0.723858 0.5 0.5 0.723858 0.5 1H1.5ZM1.5 6L1.5 1H0.5L0.5 6H1.5Z" fill="white"/>
<path d="M15 15.5C15.2761 15.5 15.5 15.2761 15.5 15C15.5 14.7239 15.2761 14.5 15 14.5V15.5ZM15 14.5H10V15.5H15V14.5Z" fill="white"/>
<path d="M15 15V10" stroke="white"/>
<path d="M15 1L10 1" stroke="white"/>
<path d="M15.5 1C15.5 0.723858 15.2761 0.5 15 0.5C14.7239 0.5 14.5 0.723858 14.5 1H15.5ZM15.5 6L15.5 1H14.5V6H15.5Z" fill="white"/>
<path d="M1 14.5C0.723858 14.5 0.5 14.7239 0.5 15C0.5 15.2761 0.723858 15.5 1 15.5V14.5ZM6 14.5H1V15.5H6V14.5Z" fill="white"/>
<path d="M0.5 15C0.5 15.2761 0.723858 15.5 1 15.5C1.27614 15.5 1.5 15.2761 1.5 15H0.5ZM1.5 15L1.5 10H0.5L0.5 15H1.5Z" fill="white"/>
<circle cx="8" cy="8" r="4" fill="#33DA79" fill-opacity="0.7"/>
<path d="M1 0.5C0.723858 0.5 0.5 0.723858 0.5 1C0.5 1.27614 0.723858 1.5 1 1.5V0.5ZM6 0.5L1 0.5V1.5L6 1.5V0.5Z" fill="white"/>
</g>
<defs>
<clipPath id="clip0_14_692">
<rect width="16" height="16" fill="white"/>
</clipPath>
</defs>
</svg>
