<svg width="24" height="27" viewBox="0 0 24 27" fill="none" xmlns="http://www.w3.org/2000/svg">
<path d="M5.66533 13.1074C5.27503 13.1074 4.91517 13.0072 4.58574 12.8066C4.2599 12.6061 3.9985 12.3394 3.80156 12.0063C3.6082 11.6698 3.51152 11.3009 3.51152 10.8999V10.395C3.51152 10.3556 3.52943 10.3359 3.56523 10.3359H4.80059C4.82923 10.3359 4.84355 10.3556 4.84355 10.395V10.8999C4.84355 11.1398 4.92412 11.3475 5.08525 11.5229C5.24639 11.6948 5.43975 11.7808 5.66533 11.7808C5.8945 11.7808 6.08965 11.693 6.25078 11.5176C6.41191 11.3385 6.49248 11.1326 6.49248 10.8999C6.49248 10.6313 6.31702 10.3968 5.96611 10.1963C5.90882 10.1605 5.83363 10.1175 5.74053 10.0674C5.65101 10.0137 5.54359 9.9528 5.41826 9.88477C5.29294 9.81673 5.17119 9.75049 5.05303 9.68604C4.93486 9.618 4.82028 9.55355 4.70928 9.49268C4.30824 9.25635 4.00924 8.96094 3.8123 8.60645C3.61895 8.24837 3.52227 7.84733 3.52227 7.40332C3.52227 6.99512 3.62253 6.6263 3.82305 6.29688C4.02357 5.97103 4.28496 5.71322 4.60723 5.52344C4.93307 5.33008 5.28577 5.2334 5.66533 5.2334C6.05563 5.2334 6.4137 5.33008 6.73955 5.52344C7.0654 5.72038 7.325 5.98177 7.51836 6.30762C7.7153 6.63346 7.81377 6.9987 7.81377 7.40332V8.30566C7.81377 8.33431 7.79945 8.34863 7.7708 8.34863H6.53545C6.5068 8.34863 6.49248 8.33431 6.49248 8.30566L6.48174 7.40332C6.48174 7.14551 6.40117 6.93604 6.24004 6.7749C6.07891 6.61377 5.88734 6.5332 5.66533 6.5332C5.43975 6.5332 5.24639 6.61914 5.08525 6.79102C4.92412 6.96289 4.84355 7.16699 4.84355 7.40332C4.84355 7.64323 4.89368 7.84375 4.99395 8.00488C5.09779 8.16602 5.28577 8.31999 5.55791 8.4668C5.58656 8.48112 5.6528 8.51693 5.75664 8.57422C5.86048 8.63151 5.97506 8.69596 6.10039 8.76758C6.2293 8.83561 6.34567 8.89827 6.44951 8.95557C6.55335 9.00928 6.61602 9.0415 6.6375 9.05225C7.00273 9.25635 7.29098 9.507 7.50225 9.8042C7.71709 10.1014 7.82451 10.4666 7.82451 10.8999C7.82451 11.3188 7.72783 11.6948 7.53447 12.0278C7.33753 12.3608 7.07614 12.624 6.75029 12.8174C6.42445 13.0107 6.06279 13.1074 5.66533 13.1074ZM10.3844 13H9.14365C9.11143 13 9.09531 12.9821 9.09531 12.9463V6.67285H7.6666C7.63079 6.67285 7.61289 6.65495 7.61289 6.61914L7.62363 5.38916C7.62363 5.36051 7.63796 5.34619 7.6666 5.34619H11.8453C11.8847 5.34619 11.9044 5.36051 11.9044 5.38916V6.61914C11.9044 6.65495 11.8901 6.67285 11.8614 6.67285H10.4166L10.4273 12.9463C10.4273 12.9821 10.413 13 10.3844 13ZM15.4901 13H11.9345C11.9058 13 11.8915 12.9821 11.8915 12.9463L11.9022 5.38916C11.9022 5.36051 11.9166 5.34619 11.9452 5.34619H15.4794C15.508 5.34619 15.5224 5.3641 15.5224 5.3999V6.62988C15.5224 6.65853 15.508 6.67285 15.4794 6.67285H13.2235V8.3916H15.4794C15.508 8.3916 15.5224 8.40592 15.5224 8.43457L15.5331 9.68066C15.5331 9.70931 15.5188 9.72363 15.4901 9.72363H13.2235V11.6465H15.4901C15.5188 11.6465 15.5331 11.6644 15.5331 11.7002V12.957C15.5331 12.9857 15.5188 13 15.4901 13ZM17.2497 13H16.0144C15.9785 13 15.9606 12.9821 15.9606 12.9463L15.9821 5.38916C15.9821 5.36051 15.9965 5.34619 16.0251 5.34619H18.1413C18.8145 5.34619 19.3462 5.55208 19.7365 5.96387C20.1304 6.37207 20.3273 6.92887 20.3273 7.63428C20.3273 8.1499 20.2253 8.59928 20.0212 8.98242C19.8135 9.36198 19.545 9.6556 19.2155 9.86328C18.8861 10.071 18.528 10.1748 18.1413 10.1748H17.3034V12.9463C17.3034 12.9821 17.2855 13 17.2497 13ZM18.1413 6.65137L17.3034 6.66211V8.84277H18.1413C18.3741 8.84277 18.5764 8.73177 18.7482 8.50977C18.9201 8.28418 19.0061 7.99235 19.0061 7.63428C19.0061 7.34782 18.9291 7.11328 18.7751 6.93066C18.6211 6.74447 18.4099 6.65137 18.1413 6.65137Z" fill="white"/>
<path d="M3.89816 14.568H4.72216C4.94616 14.568 5.05816 14.664 5.05816 14.856V19.696C5.05816 19.8987 4.94616 20 4.72216 20H4.66616C4.44216 20 4.33016 19.8987 4.33016 19.696V15.168H3.89816C3.67949 15.168 3.57016 15.0693 3.57016 14.872C3.57016 14.6693 3.67949 14.568 3.89816 14.568ZM6.34753 15.216C6.77953 14.736 7.3262 14.496 7.98753 14.496C8.64887 14.496 9.19287 14.736 9.61953 15.216C10.0462 15.6907 10.2595 16.3733 10.2595 17.264C10.2595 18.1493 10.0435 18.8373 9.61153 19.328C9.18486 19.8187 8.64353 20.064 7.98753 20.064C7.33153 20.064 6.78486 19.8187 6.34753 19.328C5.91553 18.8373 5.69953 18.1493 5.69953 17.264C5.69953 16.3787 5.91553 15.696 6.34753 15.216ZM9.50753 17.288C9.50753 16.6053 9.36087 16.0747 9.06753 15.696C8.77953 15.312 8.41687 15.12 7.97953 15.12C7.5422 15.12 7.17953 15.312 6.89153 15.696C6.60886 16.0747 6.46753 16.6053 6.46753 17.288C6.46753 17.9653 6.60086 18.496 6.86753 18.88C7.1342 19.2587 7.50487 19.448 7.97953 19.448C8.45953 19.448 8.83287 19.2587 9.09953 18.88C9.37153 18.496 9.50753 17.9653 9.50753 17.288ZM11.471 15.216C11.903 14.736 12.4496 14.496 13.111 14.496C13.7723 14.496 14.3163 14.736 14.743 15.216C15.1696 15.6907 15.383 16.3733 15.383 17.264C15.383 18.1493 15.167 18.8373 14.735 19.328C14.3083 19.8187 13.767 20.064 13.111 20.064C12.455 20.064 11.9083 19.8187 11.471 19.328C11.039 18.8373 10.823 18.1493 10.823 17.264C10.823 16.3787 11.039 15.696 11.471 15.216ZM14.631 17.288C14.631 16.6053 14.4843 16.0747 14.191 15.696C13.903 15.312 13.5403 15.12 13.103 15.12C12.6656 15.12 12.303 15.312 12.015 15.696C11.7323 16.0747 11.591 16.6053 11.591 17.288C11.591 17.9653 11.7243 18.496 11.991 18.88C12.2576 19.2587 12.6283 19.448 13.103 19.448C13.583 19.448 13.9563 19.2587 14.223 18.88C14.495 18.496 14.631 17.9653 14.631 17.288ZM16.5944 15.216C17.0264 14.736 17.5731 14.496 18.2344 14.496C18.8957 14.496 19.4397 14.736 19.8664 15.216C20.2931 15.6907 20.5064 16.3733 20.5064 17.264C20.5064 18.1493 20.2904 18.8373 19.8584 19.328C19.4317 19.8187 18.8904 20.064 18.2344 20.064C17.5784 20.064 17.0317 19.8187 16.5944 19.328C16.1624 18.8373 15.9464 18.1493 15.9464 17.264C15.9464 16.3787 16.1624 15.696 16.5944 15.216ZM19.7544 17.288C19.7544 16.6053 19.6077 16.0747 19.3144 15.696C19.0264 15.312 18.6637 15.12 18.2264 15.12C17.7891 15.12 17.4264 15.312 17.1384 15.696C16.8557 16.0747 16.7144 16.6053 16.7144 17.288C16.7144 17.9653 16.8477 18.496 17.1144 18.88C17.3811 19.2587 17.7517 19.448 18.2264 19.448C18.7064 19.448 19.0797 19.2587 19.3464 18.88C19.6184 18.496 19.7544 17.9653 19.7544 17.288Z" fill="white"/>
</svg>
