<svg width="29" height="27" viewBox="0 0 29 27" fill="none" xmlns="http://www.w3.org/2000/svg">
<path d="M8.66533 13.1074C8.27503 13.1074 7.91517 13.0072 7.58574 12.8066C7.2599 12.6061 6.9985 12.3394 6.80156 12.0063C6.6082 11.6698 6.51152 11.3009 6.51152 10.8999V10.395C6.51152 10.3556 6.52943 10.3359 6.56523 10.3359H7.80059C7.82923 10.3359 7.84355 10.3556 7.84355 10.395V10.8999C7.84355 11.1398 7.92412 11.3475 8.08525 11.5229C8.24639 11.6948 8.43975 11.7808 8.66533 11.7808C8.8945 11.7808 9.08965 11.693 9.25078 11.5176C9.41191 11.3385 9.49248 11.1326 9.49248 10.8999C9.49248 10.6313 9.31702 10.3968 8.96611 10.1963C8.90882 10.1605 8.83363 10.1175 8.74053 10.0674C8.65101 10.0137 8.54359 9.9528 8.41826 9.88477C8.29294 9.81673 8.17119 9.75049 8.05303 9.68604C7.93486 9.618 7.82028 9.55355 7.70928 9.49268C7.30824 9.25635 7.00924 8.96094 6.8123 8.60645C6.61895 8.24837 6.52227 7.84733 6.52227 7.40332C6.52227 6.99512 6.62253 6.6263 6.82305 6.29688C7.02357 5.97103 7.28496 5.71322 7.60723 5.52344C7.93307 5.33008 8.28577 5.2334 8.66533 5.2334C9.05563 5.2334 9.4137 5.33008 9.73955 5.52344C10.0654 5.72038 10.325 5.98177 10.5184 6.30762C10.7153 6.63346 10.8138 6.9987 10.8138 7.40332V8.30566C10.8138 8.33431 10.7994 8.34863 10.7708 8.34863H9.53545C9.5068 8.34863 9.49248 8.33431 9.49248 8.30566L9.48174 7.40332C9.48174 7.14551 9.40117 6.93604 9.24004 6.7749C9.07891 6.61377 8.88734 6.5332 8.66533 6.5332C8.43975 6.5332 8.24639 6.61914 8.08525 6.79102C7.92412 6.96289 7.84355 7.16699 7.84355 7.40332C7.84355 7.64323 7.89368 7.84375 7.99395 8.00488C8.09779 8.16602 8.28577 8.31999 8.55791 8.4668C8.58656 8.48112 8.6528 8.51693 8.75664 8.57422C8.86048 8.63151 8.97506 8.69596 9.10039 8.76758C9.2293 8.83561 9.34567 8.89827 9.44951 8.95557C9.55335 9.00928 9.61602 9.0415 9.6375 9.05225C10.0027 9.25635 10.291 9.507 10.5022 9.8042C10.7171 10.1014 10.8245 10.4666 10.8245 10.8999C10.8245 11.3188 10.7278 11.6948 10.5345 12.0278C10.3375 12.3608 10.0761 12.624 9.75029 12.8174C9.42445 13.0107 9.06279 13.1074 8.66533 13.1074ZM13.3844 13H12.1437C12.1114 13 12.0953 12.9821 12.0953 12.9463V6.67285H10.6666C10.6308 6.67285 10.6129 6.65495 10.6129 6.61914L10.6236 5.38916C10.6236 5.36051 10.638 5.34619 10.6666 5.34619H14.8453C14.8847 5.34619 14.9044 5.36051 14.9044 5.38916V6.61914C14.9044 6.65495 14.8901 6.67285 14.8614 6.67285H13.4166L13.4273 12.9463C13.4273 12.9821 13.413 13 13.3844 13ZM18.4901 13H14.9345C14.9058 13 14.8915 12.9821 14.8915 12.9463L14.9022 5.38916C14.9022 5.36051 14.9166 5.34619 14.9452 5.34619H18.4794C18.508 5.34619 18.5224 5.3641 18.5224 5.3999V6.62988C18.5224 6.65853 18.508 6.67285 18.4794 6.67285H16.2235V8.3916H18.4794C18.508 8.3916 18.5224 8.40592 18.5224 8.43457L18.5331 9.68066C18.5331 9.70931 18.5188 9.72363 18.4901 9.72363H16.2235V11.6465H18.4901C18.5188 11.6465 18.5331 11.6644 18.5331 11.7002V12.957C18.5331 12.9857 18.5188 13 18.4901 13ZM20.2497 13H19.0144C18.9785 13 18.9606 12.9821 18.9606 12.9463L18.9821 5.38916C18.9821 5.36051 18.9965 5.34619 19.0251 5.34619H21.1413C21.8145 5.34619 22.3462 5.55208 22.7365 5.96387C23.1304 6.37207 23.3273 6.92887 23.3273 7.63428C23.3273 8.1499 23.2253 8.59928 23.0212 8.98242C22.8135 9.36198 22.545 9.6556 22.2155 9.86328C21.8861 10.071 21.528 10.1748 21.1413 10.1748H20.3034V12.9463C20.3034 12.9821 20.2855 13 20.2497 13ZM21.1413 6.65137L20.3034 6.66211V8.84277H21.1413C21.3741 8.84277 21.5764 8.73177 21.7482 8.50977C21.9201 8.28418 22.0061 7.99235 22.0061 7.63428C22.0061 7.34782 21.9291 7.11328 21.7751 6.93066C21.6211 6.74447 21.4099 6.65137 21.1413 6.65137Z" fill="white"/>
<path d="M4.33644 14.568H5.16044C5.38444 14.568 5.49644 14.664 5.49644 14.856V19.696C5.49644 19.8987 5.38444 20 5.16044 20H5.10444C4.88044 20 4.76844 19.8987 4.76844 19.696V15.168H4.33644C4.11777 15.168 4.00844 15.0693 4.00844 14.872C4.00844 14.6693 4.11777 14.568 4.33644 14.568ZM6.78581 15.216C7.21781 14.736 7.76448 14.496 8.42581 14.496C9.08715 14.496 9.63115 14.736 10.0578 15.216C10.4845 15.6907 10.6978 16.3733 10.6978 17.264C10.6978 18.1493 10.4818 18.8373 10.0498 19.328C9.62315 19.8187 9.08181 20.064 8.42581 20.064C7.76981 20.064 7.22315 19.8187 6.78581 19.328C6.35381 18.8373 6.13781 18.1493 6.13781 17.264C6.13781 16.3787 6.35381 15.696 6.78581 15.216ZM9.94581 17.288C9.94581 16.6053 9.79915 16.0747 9.50581 15.696C9.21781 15.312 8.85515 15.12 8.41781 15.12C7.98048 15.12 7.61781 15.312 7.32981 15.696C7.04715 16.0747 6.90581 16.6053 6.90581 17.288C6.90581 17.9653 7.03915 18.496 7.30581 18.88C7.57248 19.2587 7.94315 19.448 8.41781 19.448C8.89781 19.448 9.27115 19.2587 9.53781 18.88C9.80981 18.496 9.94581 17.9653 9.94581 17.288ZM11.9093 15.216C12.3413 14.736 12.8879 14.496 13.5493 14.496C14.2106 14.496 14.7546 14.736 15.1813 15.216C15.6079 15.6907 15.8213 16.3733 15.8213 17.264C15.8213 18.1493 15.6053 18.8373 15.1733 19.328C14.7466 19.8187 14.2053 20.064 13.5493 20.064C12.8933 20.064 12.3466 19.8187 11.9093 19.328C11.4773 18.8373 11.2613 18.1493 11.2613 17.264C11.2613 16.3787 11.4773 15.696 11.9093 15.216ZM15.0693 17.288C15.0693 16.6053 14.9226 16.0747 14.6293 15.696C14.3413 15.312 13.9786 15.12 13.5413 15.12C13.1039 15.12 12.7413 15.312 12.4533 15.696C12.1706 16.0747 12.0293 16.6053 12.0293 17.288C12.0293 17.9653 12.1626 18.496 12.4293 18.88C12.6959 19.2587 13.0666 19.448 13.5413 19.448C14.0213 19.448 14.3946 19.2587 14.6613 18.88C14.9333 18.496 15.0693 17.9653 15.0693 17.288ZM17.0327 15.216C17.4647 14.736 18.0114 14.496 18.6727 14.496C19.334 14.496 19.878 14.736 20.3047 15.216C20.7314 15.6907 20.9447 16.3733 20.9447 17.264C20.9447 18.1493 20.7287 18.8373 20.2967 19.328C19.87 19.8187 19.3287 20.064 18.6727 20.064C18.0167 20.064 17.47 19.8187 17.0327 19.328C16.6007 18.8373 16.3847 18.1493 16.3847 17.264C16.3847 16.3787 16.6007 15.696 17.0327 15.216ZM20.1927 17.288C20.1927 16.6053 20.046 16.0747 19.7527 15.696C19.4647 15.312 19.102 15.12 18.6647 15.12C18.2274 15.12 17.8647 15.312 17.5767 15.696C17.294 16.0747 17.1527 16.6053 17.1527 17.288C17.1527 17.9653 17.286 18.496 17.5527 18.88C17.8194 19.2587 18.19 19.448 18.6647 19.448C19.1447 19.448 19.518 19.2587 19.7847 18.88C20.0567 18.496 20.1927 17.9653 20.1927 17.288ZM22.1561 15.216C22.5881 14.736 23.1348 14.496 23.7961 14.496C24.4575 14.496 25.0015 14.736 25.4281 15.216C25.8548 15.6907 26.0681 16.3733 26.0681 17.264C26.0681 18.1493 25.8521 18.8373 25.4201 19.328C24.9935 19.8187 24.4521 20.064 23.7961 20.064C23.1401 20.064 22.5935 19.8187 22.1561 19.328C21.7241 18.8373 21.5081 18.1493 21.5081 17.264C21.5081 16.3787 21.7241 15.696 22.1561 15.216ZM25.3161 17.288C25.3161 16.6053 25.1695 16.0747 24.8761 15.696C24.5881 15.312 24.2255 15.12 23.7881 15.12C23.3508 15.12 22.9881 15.312 22.7001 15.696C22.4175 16.0747 22.2761 16.6053 22.2761 17.288C22.2761 17.9653 22.4095 18.496 22.6761 18.88C22.9428 19.2587 23.3135 19.448 23.7881 19.448C24.2681 19.448 24.6415 19.2587 24.9081 18.88C25.1801 18.496 25.3161 17.9653 25.3161 17.288Z" fill="white"/>
</svg>
