<svg width="24" height="27" viewBox="0 0 24 27" fill="none" xmlns="http://www.w3.org/2000/svg">
<path d="M5.66533 13.1074C5.27503 13.1074 4.91517 13.0072 4.58574 12.8066C4.2599 12.6061 3.9985 12.3394 3.80156 12.0063C3.6082 11.6698 3.51152 11.3009 3.51152 10.8999V10.395C3.51152 10.3556 3.52943 10.3359 3.56523 10.3359H4.80059C4.82923 10.3359 4.84355 10.3556 4.84355 10.395V10.8999C4.84355 11.1398 4.92412 11.3475 5.08525 11.5229C5.24639 11.6948 5.43975 11.7808 5.66533 11.7808C5.8945 11.7808 6.08965 11.693 6.25078 11.5176C6.41191 11.3385 6.49248 11.1326 6.49248 10.8999C6.49248 10.6313 6.31702 10.3968 5.96611 10.1963C5.90882 10.1605 5.83363 10.1175 5.74053 10.0674C5.65101 10.0137 5.54359 9.9528 5.41826 9.88477C5.29294 9.81673 5.17119 9.75049 5.05303 9.68604C4.93486 9.618 4.82028 9.55355 4.70928 9.49268C4.30824 9.25635 4.00924 8.96094 3.8123 8.60645C3.61895 8.24837 3.52227 7.84733 3.52227 7.40332C3.52227 6.99512 3.62253 6.6263 3.82305 6.29688C4.02357 5.97103 4.28496 5.71322 4.60723 5.52344C4.93307 5.33008 5.28577 5.2334 5.66533 5.2334C6.05563 5.2334 6.4137 5.33008 6.73955 5.52344C7.0654 5.72038 7.325 5.98177 7.51836 6.30762C7.7153 6.63346 7.81377 6.9987 7.81377 7.40332V8.30566C7.81377 8.33431 7.79945 8.34863 7.7708 8.34863H6.53545C6.5068 8.34863 6.49248 8.33431 6.49248 8.30566L6.48174 7.40332C6.48174 7.14551 6.40117 6.93604 6.24004 6.7749C6.07891 6.61377 5.88734 6.5332 5.66533 6.5332C5.43975 6.5332 5.24639 6.61914 5.08525 6.79102C4.92412 6.96289 4.84355 7.16699 4.84355 7.40332C4.84355 7.64323 4.89368 7.84375 4.99395 8.00488C5.09779 8.16602 5.28577 8.31999 5.55791 8.4668C5.58656 8.48112 5.6528 8.51693 5.75664 8.57422C5.86048 8.63151 5.97506 8.69596 6.10039 8.76758C6.2293 8.83561 6.34567 8.89827 6.44951 8.95557C6.55335 9.00928 6.61602 9.0415 6.6375 9.05225C7.00273 9.25635 7.29098 9.507 7.50225 9.8042C7.71709 10.1014 7.82451 10.4666 7.82451 10.8999C7.82451 11.3188 7.72783 11.6948 7.53447 12.0278C7.33753 12.3608 7.07614 12.624 6.75029 12.8174C6.42445 13.0107 6.06279 13.1074 5.66533 13.1074ZM10.3844 13H9.14365C9.11143 13 9.09531 12.9821 9.09531 12.9463V6.67285H7.6666C7.63079 6.67285 7.61289 6.65495 7.61289 6.61914L7.62363 5.38916C7.62363 5.36051 7.63796 5.34619 7.6666 5.34619H11.8453C11.8847 5.34619 11.9044 5.36051 11.9044 5.38916V6.61914C11.9044 6.65495 11.8901 6.67285 11.8614 6.67285H10.4166L10.4273 12.9463C10.4273 12.9821 10.413 13 10.3844 13ZM15.4901 13H11.9345C11.9058 13 11.8915 12.9821 11.8915 12.9463L11.9022 5.38916C11.9022 5.36051 11.9166 5.34619 11.9452 5.34619H15.4794C15.508 5.34619 15.5224 5.3641 15.5224 5.3999V6.62988C15.5224 6.65853 15.508 6.67285 15.4794 6.67285H13.2235V8.3916H15.4794C15.508 8.3916 15.5224 8.40592 15.5224 8.43457L15.5331 9.68066C15.5331 9.70931 15.5188 9.72363 15.4901 9.72363H13.2235V11.6465H15.4901C15.5188 11.6465 15.5331 11.6644 15.5331 11.7002V12.957C15.5331 12.9857 15.5188 13 15.4901 13ZM17.2497 13H16.0144C15.9785 13 15.9606 12.9821 15.9606 12.9463L15.9821 5.38916C15.9821 5.36051 15.9965 5.34619 16.0251 5.34619H18.1413C18.8145 5.34619 19.3462 5.55208 19.7365 5.96387C20.1304 6.37207 20.3273 6.92887 20.3273 7.63428C20.3273 8.1499 20.2253 8.59928 20.0212 8.98242C19.8135 9.36198 19.545 9.6556 19.2155 9.86328C18.8861 10.071 18.528 10.1748 18.1413 10.1748H17.3034V12.9463C17.3034 12.9821 17.2855 13 17.2497 13ZM18.1413 6.65137L17.3034 6.66211V8.84277H18.1413C18.3741 8.84277 18.5764 8.73177 18.7482 8.50977C18.9201 8.28418 19.0061 7.99235 19.0061 7.63428C19.0061 7.34782 18.9291 7.11328 18.7751 6.93066C18.6211 6.74447 18.4099 6.65137 18.1413 6.65137Z" fill="white"/>
<path d="M5.39838 14.568H7.84638C8.05971 14.568 8.16638 14.6693 8.16638 14.872C8.16638 15.0747 8.05971 15.176 7.84638 15.176H5.63838L5.51838 16.768C5.77438 16.6933 6.09438 16.656 6.47838 16.656C7.01171 16.656 7.44904 16.792 7.79038 17.064C8.13171 17.336 8.30238 17.736 8.30238 18.264C8.30238 18.792 8.10238 19.224 7.70238 19.56C7.30238 19.896 6.81704 20.064 6.24638 20.064C5.68104 20.064 5.24638 19.9947 4.94238 19.856C4.63838 19.712 4.48638 19.512 4.48638 19.256C4.48638 19.064 4.59838 18.9307 4.82238 18.856C4.89171 19.064 5.05704 19.2187 5.31838 19.32C5.58504 19.416 5.90504 19.464 6.27838 19.464C6.65704 19.464 6.98504 19.36 7.26238 19.152C7.53971 18.944 7.67838 18.6613 7.67838 18.304C7.67838 17.9413 7.55571 17.6747 7.31038 17.504C7.07038 17.3333 6.78504 17.248 6.45438 17.248C6.12371 17.248 5.76904 17.304 5.39038 17.416C5.34238 17.432 5.28104 17.44 5.20638 17.44C5.13704 17.44 5.06771 17.408 4.99838 17.344C4.92904 17.2747 4.89438 17.1867 4.89438 17.08L5.07038 14.864C5.08104 14.7573 5.10771 14.6827 5.15038 14.64C5.19838 14.592 5.28104 14.568 5.39838 14.568ZM9.34675 15.216C9.77875 14.736 10.3254 14.496 10.9868 14.496C11.6481 14.496 12.1921 14.736 12.6188 15.216C13.0454 15.6907 13.2588 16.3733 13.2588 17.264C13.2588 18.1493 13.0428 18.8373 12.6108 19.328C12.1841 19.8187 11.6428 20.064 10.9868 20.064C10.3308 20.064 9.78408 19.8187 9.34675 19.328C8.91475 18.8373 8.69875 18.1493 8.69875 17.264C8.69875 16.3787 8.91475 15.696 9.34675 15.216ZM12.5068 17.288C12.5068 16.6053 12.3601 16.0747 12.0668 15.696C11.7788 15.312 11.4161 15.12 10.9788 15.12C10.5414 15.12 10.1788 15.312 9.89075 15.696C9.60808 16.0747 9.46675 16.6053 9.46675 17.288C9.46675 17.9653 9.60008 18.496 9.86675 18.88C10.1334 19.2587 10.5041 19.448 10.9788 19.448C11.4588 19.448 11.8321 19.2587 12.0988 18.88C12.3708 18.496 12.5068 17.9653 12.5068 17.288ZM14.4702 15.216C14.9022 14.736 15.4489 14.496 16.1102 14.496C16.7715 14.496 17.3155 14.736 17.7422 15.216C18.1689 15.6907 18.3822 16.3733 18.3822 17.264C18.3822 18.1493 18.1662 18.8373 17.7342 19.328C17.3075 19.8187 16.7662 20.064 16.1102 20.064C15.4542 20.064 14.9075 19.8187 14.4702 19.328C14.0382 18.8373 13.8222 18.1493 13.8222 17.264C13.8222 16.3787 14.0382 15.696 14.4702 15.216ZM17.6302 17.288C17.6302 16.6053 17.4835 16.0747 17.1902 15.696C16.9022 15.312 16.5395 15.12 16.1022 15.12C15.6649 15.12 15.3022 15.312 15.0142 15.696C14.7315 16.0747 14.5902 16.6053 14.5902 17.288C14.5902 17.9653 14.7235 18.496 14.9902 18.88C15.2569 19.2587 15.6275 19.448 16.1022 19.448C16.5822 19.448 16.9555 19.2587 17.2222 18.88C17.4942 18.496 17.6302 17.9653 17.6302 17.288Z" fill="white"/>
</svg>
