<svg width="24" height="27" viewBox="0 0 24 27" fill="none" xmlns="http://www.w3.org/2000/svg">
<path d="M5.66533 13.1074C5.27503 13.1074 4.91517 13.0072 4.58574 12.8066C4.2599 12.6061 3.9985 12.3394 3.80156 12.0063C3.6082 11.6698 3.51152 11.3009 3.51152 10.8999V10.395C3.51152 10.3556 3.52943 10.3359 3.56523 10.3359H4.80059C4.82923 10.3359 4.84355 10.3556 4.84355 10.395V10.8999C4.84355 11.1398 4.92412 11.3475 5.08525 11.5229C5.24639 11.6948 5.43975 11.7808 5.66533 11.7808C5.8945 11.7808 6.08965 11.693 6.25078 11.5176C6.41191 11.3385 6.49248 11.1326 6.49248 10.8999C6.49248 10.6313 6.31702 10.3968 5.96611 10.1963C5.90882 10.1605 5.83363 10.1175 5.74053 10.0674C5.65101 10.0137 5.54359 9.9528 5.41826 9.88477C5.29294 9.81673 5.17119 9.75049 5.05303 9.68604C4.93486 9.618 4.82028 9.55355 4.70928 9.49268C4.30824 9.25635 4.00924 8.96094 3.8123 8.60645C3.61895 8.24837 3.52227 7.84733 3.52227 7.40332C3.52227 6.99512 3.62253 6.6263 3.82305 6.29688C4.02357 5.97103 4.28496 5.71322 4.60723 5.52344C4.93307 5.33008 5.28577 5.2334 5.66533 5.2334C6.05563 5.2334 6.4137 5.33008 6.73955 5.52344C7.0654 5.72038 7.325 5.98177 7.51836 6.30762C7.7153 6.63346 7.81377 6.9987 7.81377 7.40332V8.30566C7.81377 8.33431 7.79945 8.34863 7.7708 8.34863H6.53545C6.5068 8.34863 6.49248 8.33431 6.49248 8.30566L6.48174 7.40332C6.48174 7.14551 6.40117 6.93604 6.24004 6.7749C6.07891 6.61377 5.88734 6.5332 5.66533 6.5332C5.43975 6.5332 5.24639 6.61914 5.08525 6.79102C4.92412 6.96289 4.84355 7.16699 4.84355 7.40332C4.84355 7.64323 4.89368 7.84375 4.99395 8.00488C5.09779 8.16602 5.28577 8.31999 5.55791 8.4668C5.58656 8.48112 5.6528 8.51693 5.75664 8.57422C5.86048 8.63151 5.97506 8.69596 6.10039 8.76758C6.2293 8.83561 6.34567 8.89827 6.44951 8.95557C6.55335 9.00928 6.61602 9.0415 6.6375 9.05225C7.00273 9.25635 7.29098 9.507 7.50225 9.8042C7.71709 10.1014 7.82451 10.4666 7.82451 10.8999C7.82451 11.3188 7.72783 11.6948 7.53447 12.0278C7.33753 12.3608 7.07614 12.624 6.75029 12.8174C6.42445 13.0107 6.06279 13.1074 5.66533 13.1074ZM10.3844 13H9.14365C9.11143 13 9.09531 12.9821 9.09531 12.9463V6.67285H7.6666C7.63079 6.67285 7.61289 6.65495 7.61289 6.61914L7.62363 5.38916C7.62363 5.36051 7.63796 5.34619 7.6666 5.34619H11.8453C11.8847 5.34619 11.9044 5.36051 11.9044 5.38916V6.61914C11.9044 6.65495 11.8901 6.67285 11.8614 6.67285H10.4166L10.4273 12.9463C10.4273 12.9821 10.413 13 10.3844 13ZM15.4901 13H11.9345C11.9058 13 11.8915 12.9821 11.8915 12.9463L11.9022 5.38916C11.9022 5.36051 11.9166 5.34619 11.9452 5.34619H15.4794C15.508 5.34619 15.5224 5.3641 15.5224 5.3999V6.62988C15.5224 6.65853 15.508 6.67285 15.4794 6.67285H13.2235V8.3916H15.4794C15.508 8.3916 15.5224 8.40592 15.5224 8.43457L15.5331 9.68066C15.5331 9.70931 15.5188 9.72363 15.4901 9.72363H13.2235V11.6465H15.4901C15.5188 11.6465 15.5331 11.6644 15.5331 11.7002V12.957C15.5331 12.9857 15.5188 13 15.4901 13ZM17.2497 13H16.0144C15.9785 13 15.9606 12.9821 15.9606 12.9463L15.9821 5.38916C15.9821 5.36051 15.9965 5.34619 16.0251 5.34619H18.1413C18.8145 5.34619 19.3462 5.55208 19.7365 5.96387C20.1304 6.37207 20.3273 6.92887 20.3273 7.63428C20.3273 8.1499 20.2253 8.59928 20.0212 8.98242C19.8135 9.36198 19.545 9.6556 19.2155 9.86328C18.8861 10.071 18.528 10.1748 18.1413 10.1748H17.3034V12.9463C17.3034 12.9821 17.2855 13 17.2497 13ZM18.1413 6.65137L17.3034 6.66211V8.84277H18.1413C18.3741 8.84277 18.5764 8.73177 18.7482 8.50977C18.9201 8.28418 19.0061 7.99235 19.0061 7.63428C19.0061 7.34782 18.9291 7.11328 18.7751 6.93066C18.6211 6.74447 18.4099 6.65137 18.1413 6.65137Z" fill="white"/>
<path d="M3.33666 14.568H5.78466C5.99799 14.568 6.10466 14.6693 6.10466 14.872C6.10466 15.0747 5.99799 15.176 5.78466 15.176H3.57666L3.45666 16.768C3.71266 16.6933 4.03266 16.656 4.41666 16.656C4.94999 16.656 5.38732 16.792 5.72866 17.064C6.06999 17.336 6.24066 17.736 6.24066 18.264C6.24066 18.792 6.04066 19.224 5.64066 19.56C5.24066 19.896 4.75532 20.064 4.18466 20.064C3.61932 20.064 3.18466 19.9947 2.88066 19.856C2.57666 19.712 2.42466 19.512 2.42466 19.256C2.42466 19.064 2.53666 18.9307 2.76066 18.856C2.82999 19.064 2.99532 19.2187 3.25666 19.32C3.52332 19.416 3.84332 19.464 4.21666 19.464C4.59532 19.464 4.92332 19.36 5.20066 19.152C5.47799 18.944 5.61666 18.6613 5.61666 18.304C5.61666 17.9413 5.49399 17.6747 5.24866 17.504C5.00866 17.3333 4.72332 17.248 4.39266 17.248C4.06199 17.248 3.70732 17.304 3.32866 17.416C3.28066 17.432 3.21932 17.44 3.14466 17.44C3.07532 17.44 3.00599 17.408 2.93666 17.344C2.86732 17.2747 2.83266 17.1867 2.83266 17.08L3.00866 14.864C3.01932 14.7573 3.04599 14.6827 3.08866 14.64C3.13666 14.592 3.21932 14.568 3.33666 14.568ZM7.28503 15.216C7.71703 14.736 8.2637 14.496 8.92503 14.496C9.58637 14.496 10.1304 14.736 10.557 15.216C10.9837 15.6907 11.197 16.3733 11.197 17.264C11.197 18.1493 10.981 18.8373 10.549 19.328C10.1224 19.8187 9.58103 20.064 8.92503 20.064C8.26903 20.064 7.72236 19.8187 7.28503 19.328C6.85303 18.8373 6.63703 18.1493 6.63703 17.264C6.63703 16.3787 6.85303 15.696 7.28503 15.216ZM10.445 17.288C10.445 16.6053 10.2984 16.0747 10.005 15.696C9.71703 15.312 9.35437 15.12 8.91703 15.12C8.4797 15.12 8.11703 15.312 7.82903 15.696C7.54636 16.0747 7.40503 16.6053 7.40503 17.288C7.40503 17.9653 7.53836 18.496 7.80503 18.88C8.0717 19.2587 8.44237 19.448 8.91703 19.448C9.39703 19.448 9.77037 19.2587 10.037 18.88C10.309 18.496 10.445 17.9653 10.445 17.288ZM12.4085 15.216C12.8405 14.736 13.3871 14.496 14.0485 14.496C14.7098 14.496 15.2538 14.736 15.6805 15.216C16.1071 15.6907 16.3205 16.3733 16.3205 17.264C16.3205 18.1493 16.1045 18.8373 15.6725 19.328C15.2458 19.8187 14.7045 20.064 14.0485 20.064C13.3925 20.064 12.8458 19.8187 12.4085 19.328C11.9765 18.8373 11.7605 18.1493 11.7605 17.264C11.7605 16.3787 11.9765 15.696 12.4085 15.216ZM15.5685 17.288C15.5685 16.6053 15.4218 16.0747 15.1285 15.696C14.8405 15.312 14.4778 15.12 14.0405 15.12C13.6031 15.12 13.2405 15.312 12.9525 15.696C12.6698 16.0747 12.5285 16.6053 12.5285 17.288C12.5285 17.9653 12.6618 18.496 12.9285 18.88C13.1951 19.2587 13.5658 19.448 14.0405 19.448C14.5205 19.448 14.8938 19.2587 15.1605 18.88C15.4325 18.496 15.5685 17.9653 15.5685 17.288ZM17.5319 15.216C17.9639 14.736 18.5106 14.496 19.1719 14.496C19.8332 14.496 20.3772 14.736 20.8039 15.216C21.2306 15.6907 21.4439 16.3733 21.4439 17.264C21.4439 18.1493 21.2279 18.8373 20.7959 19.328C20.3692 19.8187 19.8279 20.064 19.1719 20.064C18.5159 20.064 17.9692 19.8187 17.5319 19.328C17.0999 18.8373 16.8839 18.1493 16.8839 17.264C16.8839 16.3787 17.0999 15.696 17.5319 15.216ZM20.6919 17.288C20.6919 16.6053 20.5452 16.0747 20.2519 15.696C19.9639 15.312 19.6012 15.12 19.1639 15.12C18.7266 15.12 18.3639 15.312 18.0759 15.696C17.7932 16.0747 17.6519 16.6053 17.6519 17.288C17.6519 17.9653 17.7852 18.496 18.0519 18.88C18.3186 19.2587 18.6892 19.448 19.1639 19.448C19.6439 19.448 20.0172 19.2587 20.2839 18.88C20.5559 18.496 20.6919 17.9653 20.6919 17.288Z" fill="white"/>
</svg>
