<svg width="24" height="27" viewBox="0 0 24 27" fill="none" xmlns="http://www.w3.org/2000/svg">
<path d="M5.66533 13.1074C5.27503 13.1074 4.91517 13.0072 4.58574 12.8066C4.2599 12.6061 3.9985 12.3394 3.80156 12.0063C3.6082 11.6698 3.51152 11.3009 3.51152 10.8999V10.395C3.51152 10.3556 3.52943 10.3359 3.56523 10.3359H4.80059C4.82923 10.3359 4.84355 10.3556 4.84355 10.395V10.8999C4.84355 11.1398 4.92412 11.3475 5.08525 11.5229C5.24639 11.6948 5.43975 11.7808 5.66533 11.7808C5.8945 11.7808 6.08965 11.693 6.25078 11.5176C6.41191 11.3385 6.49248 11.1326 6.49248 10.8999C6.49248 10.6313 6.31702 10.3968 5.96611 10.1963C5.90882 10.1605 5.83363 10.1175 5.74053 10.0674C5.65101 10.0137 5.54359 9.9528 5.41826 9.88477C5.29294 9.81673 5.17119 9.75049 5.05303 9.68604C4.93486 9.618 4.82028 9.55355 4.70928 9.49268C4.30824 9.25635 4.00924 8.96094 3.8123 8.60645C3.61895 8.24837 3.52227 7.84733 3.52227 7.40332C3.52227 6.99512 3.62253 6.6263 3.82305 6.29688C4.02357 5.97103 4.28496 5.71322 4.60723 5.52344C4.93307 5.33008 5.28577 5.2334 5.66533 5.2334C6.05563 5.2334 6.4137 5.33008 6.73955 5.52344C7.0654 5.72038 7.325 5.98177 7.51836 6.30762C7.7153 6.63346 7.81377 6.9987 7.81377 7.40332V8.30566C7.81377 8.33431 7.79945 8.34863 7.7708 8.34863H6.53545C6.5068 8.34863 6.49248 8.33431 6.49248 8.30566L6.48174 7.40332C6.48174 7.14551 6.40117 6.93604 6.24004 6.7749C6.07891 6.61377 5.88734 6.5332 5.66533 6.5332C5.43975 6.5332 5.24639 6.61914 5.08525 6.79102C4.92412 6.96289 4.84355 7.16699 4.84355 7.40332C4.84355 7.64323 4.89368 7.84375 4.99395 8.00488C5.09779 8.16602 5.28577 8.31999 5.55791 8.4668C5.58656 8.48112 5.6528 8.51693 5.75664 8.57422C5.86048 8.63151 5.97506 8.69596 6.10039 8.76758C6.2293 8.83561 6.34567 8.89827 6.44951 8.95557C6.55335 9.00928 6.61602 9.0415 6.6375 9.05225C7.00273 9.25635 7.29098 9.507 7.50225 9.8042C7.71709 10.1014 7.82451 10.4666 7.82451 10.8999C7.82451 11.3188 7.72783 11.6948 7.53447 12.0278C7.33753 12.3608 7.07614 12.624 6.75029 12.8174C6.42445 13.0107 6.06279 13.1074 5.66533 13.1074ZM10.3844 13H9.14365C9.11143 13 9.09531 12.9821 9.09531 12.9463V6.67285H7.6666C7.63079 6.67285 7.61289 6.65495 7.61289 6.61914L7.62363 5.38916C7.62363 5.36051 7.63796 5.34619 7.6666 5.34619H11.8453C11.8847 5.34619 11.9044 5.36051 11.9044 5.38916V6.61914C11.9044 6.65495 11.8901 6.67285 11.8614 6.67285H10.4166L10.4273 12.9463C10.4273 12.9821 10.413 13 10.3844 13ZM15.4901 13H11.9345C11.9058 13 11.8915 12.9821 11.8915 12.9463L11.9022 5.38916C11.9022 5.36051 11.9166 5.34619 11.9452 5.34619H15.4794C15.508 5.34619 15.5224 5.3641 15.5224 5.3999V6.62988C15.5224 6.65853 15.508 6.67285 15.4794 6.67285H13.2235V8.3916H15.4794C15.508 8.3916 15.5224 8.40592 15.5224 8.43457L15.5331 9.68066C15.5331 9.70931 15.5188 9.72363 15.4901 9.72363H13.2235V11.6465H15.4901C15.5188 11.6465 15.5331 11.6644 15.5331 11.7002V12.957C15.5331 12.9857 15.5188 13 15.4901 13ZM17.2497 13H16.0144C15.9785 13 15.9606 12.9821 15.9606 12.9463L15.9821 5.38916C15.9821 5.36051 15.9965 5.34619 16.0251 5.34619H18.1413C18.8145 5.34619 19.3462 5.55208 19.7365 5.96387C20.1304 6.37207 20.3273 6.92887 20.3273 7.63428C20.3273 8.1499 20.2253 8.59928 20.0212 8.98242C19.8135 9.36198 19.545 9.6556 19.2155 9.86328C18.8861 10.071 18.528 10.1748 18.1413 10.1748H17.3034V12.9463C17.3034 12.9821 17.2855 13 17.2497 13ZM18.1413 6.65137L17.3034 6.66211V8.84277H18.1413C18.3741 8.84277 18.5764 8.73177 18.7482 8.50977C18.9201 8.28418 19.0061 7.99235 19.0061 7.63428C19.0061 7.34782 18.9291 7.11328 18.7751 6.93066C18.6211 6.74447 18.4099 6.65137 18.1413 6.65137Z" fill="white"/>
<path d="M5.95988 14.568H6.78388C7.00788 14.568 7.11988 14.664 7.11988 14.856V19.696C7.11988 19.8987 7.00788 20 6.78388 20H6.72788C6.50388 20 6.39188 19.8987 6.39188 19.696V15.168H5.95988C5.74121 15.168 5.63188 15.0693 5.63188 14.872C5.63188 14.6693 5.74121 14.568 5.95988 14.568ZM8.40925 15.216C8.84125 14.736 9.38792 14.496 10.0493 14.496C10.7106 14.496 11.2546 14.736 11.6813 15.216C12.1079 15.6907 12.3213 16.3733 12.3213 17.264C12.3213 18.1493 12.1053 18.8373 11.6733 19.328C11.2466 19.8187 10.7053 20.064 10.0493 20.064C9.39325 20.064 8.84658 19.8187 8.40925 19.328C7.97725 18.8373 7.76125 18.1493 7.76125 17.264C7.76125 16.3787 7.97725 15.696 8.40925 15.216ZM11.5693 17.288C11.5693 16.6053 11.4226 16.0747 11.1293 15.696C10.8413 15.312 10.4786 15.12 10.0413 15.12C9.60392 15.12 9.24125 15.312 8.95325 15.696C8.67058 16.0747 8.52925 16.6053 8.52925 17.288C8.52925 17.9653 8.66258 18.496 8.92925 18.88C9.19592 19.2587 9.56658 19.448 10.0413 19.448C10.5213 19.448 10.8946 19.2587 11.1613 18.88C11.4333 18.496 11.5693 17.9653 11.5693 17.288ZM13.5327 15.216C13.9647 14.736 14.5114 14.496 15.1727 14.496C15.834 14.496 16.378 14.736 16.8047 15.216C17.2314 15.6907 17.4447 16.3733 17.4447 17.264C17.4447 18.1493 17.2287 18.8373 16.7967 19.328C16.37 19.8187 15.8287 20.064 15.1727 20.064C14.5167 20.064 13.97 19.8187 13.5327 19.328C13.1007 18.8373 12.8847 18.1493 12.8847 17.264C12.8847 16.3787 13.1007 15.696 13.5327 15.216ZM16.6927 17.288C16.6927 16.6053 16.546 16.0747 16.2527 15.696C15.9647 15.312 15.602 15.12 15.1647 15.12C14.7274 15.12 14.3647 15.312 14.0767 15.696C13.794 16.0747 13.6527 16.6053 13.6527 17.288C13.6527 17.9653 13.786 18.496 14.0527 18.88C14.3194 19.2587 14.69 19.448 15.1647 19.448C15.6447 19.448 16.018 19.2587 16.2847 18.88C16.5567 18.496 16.6927 17.9653 16.6927 17.288Z" fill="white"/>
</svg>
